<svg width="105" height="61" viewBox="0 0 105 61" fill="none" xmlns="http://www.w3.org/2000/svg">
<path d="M58.6544 11.1396C61.0445 11.1396 62.9821 9.22883 62.9821 6.8718C62.9821 4.51478 61.0445 2.60403 58.6544 2.60403C56.2643 2.60403 54.3267 4.51478 54.3267 6.8718C54.3267 9.22883 56.2643 11.1396 58.6544 11.1396Z" fill="#A0616A"/>
<path d="M55.4243 9.00569C55.4243 9.00569 56.2397 15.0672 54.9853 15.7475C53.7309 16.4279 62.449 16.4897 62.449 16.4897C62.449 16.4897 60.5046 11.2324 61.3827 9.62421L55.4243 9.00569Z" fill="#A0616A"/>
<path d="M68.815 16.5204L68.0899 19.7763L66.5568 26.6646L66.5109 27.0418L65.9819 31.4091L65.6299 34.3103L65.394 36.2592C63.9592 36.9864 62.9193 37.4884 62.9193 37.4884C62.9193 37.4884 62.8298 37.0462 62.6856 36.4803C61.6787 36.778 59.8155 37.2719 58.2365 37.3706C58.8115 38.0026 59.0757 38.5963 58.7173 39.0345C57.6356 40.3554 53.17 37.5882 51.6081 36.5563C51.5717 36.8034 51.558 37.0532 51.5669 37.3027L50.3717 36.3961L50.4899 34.3103L50.6894 30.7811L50.9402 26.3553C50.8611 26.1658 50.7948 25.9713 50.7418 25.7732C50.3758 24.4894 49.9314 21.9259 49.5907 19.7763C49.3165 18.0462 49.1105 16.5843 49.0669 16.2732C49.061 16.2326 49.0581 16.2117 49.0581 16.2117L55.6747 13.3284C56.1449 14.4038 58.3407 14.7271 58.3407 14.7271C60.1598 14.6035 61.5857 13.6575 61.5857 13.6575L68.815 16.5204Z" fill="#D0CDE1"/>
<path d="M63.4213 36.2516C63.4213 36.2516 63.1411 36.3462 62.6856 36.4803C61.6787 36.778 59.8155 37.2719 58.2365 37.3706C56.877 37.4565 55.7283 37.2498 55.5182 36.3752C55.4281 35.9992 55.5558 35.6898 55.8342 35.4356C56.6652 34.6759 58.8356 34.4037 60.557 34.3103C61.0431 34.2842 61.4927 34.272 61.867 34.2674C62.5026 34.2592 62.9193 34.272 62.9193 34.272L62.9293 34.3103L63.4213 36.2516Z" fill="#A0616A"/>
<path d="M55.0542 2.83489L54.245 2.51543C54.245 2.51543 55.9369 0.678531 58.2909 0.838268L57.6288 0.119475C57.6288 0.119475 59.2471 -0.51944 60.7184 1.15772C61.4917 2.03937 62.3866 3.0757 62.9444 4.24311H63.8109L63.4493 5.02845L64.7151 5.81378L63.4159 5.67272C63.4933 6.10278 63.5052 6.54183 63.4511 6.97535C63.3954 7.409 63.171 7.80433 62.8253 8.07792C62.8253 8.07792 61.8218 6.02948 61.8218 5.71002V6.50868C61.8218 6.50868 61.0126 5.78989 61.0126 5.3107L60.5712 5.86976L60.3505 4.99124L57.6288 5.86976L58.0702 5.15098L56.3783 5.39057L57.0403 4.51205C57.0403 4.51205 55.1278 5.5503 55.0542 6.42882C54.9806 7.30733 54.4208 8.13977 54.4208 8.13977C54.4208 8.13977 52.9209 4.03286 55.0542 2.83489Z" fill="#2F2E41"/>
<path d="M73.5189 31.4886C73.0781 31.9598 71.9859 32.6696 70.6617 33.438C70.1691 33.7236 69.6448 34.0178 69.1098 34.3103C67.8333 35.0085 66.4968 35.7003 65.394 36.2592C63.9592 36.9864 62.9193 37.4884 62.9193 37.4884C62.9193 37.4884 62.8298 37.0461 62.6856 36.4803C62.4926 35.7229 62.2019 34.7438 61.8988 34.3103C61.8882 34.2952 61.8776 34.2813 61.867 34.2674C61.7787 34.153 61.6899 34.0863 61.6022 34.0863L65.9819 31.4091L67.8745 30.2518L66.5109 27.0418L64.8007 23.0153L65.833 19.7762L66.8705 16.5204H68.815C68.815 16.5204 69.4588 17.9063 70.2821 19.8389C70.4051 20.128 70.5322 20.4292 70.6617 20.7402C72.3554 24.8028 74.467 30.4758 73.5189 31.4886Z" fill="#D0CDE1"/>
<path d="M58.7173 39.0345C57.6356 40.3554 53.17 37.5882 51.6081 36.5563C51.2679 36.3317 51.0655 36.1895 51.0655 36.1895L52.4944 34.3103L52.947 33.7154C52.947 33.7154 53.3519 33.9273 53.9504 34.272C53.9722 34.2848 53.9939 34.2975 54.0163 34.3103C54.5324 34.6092 55.1804 34.9998 55.8342 35.4356C56.7364 36.0375 57.6486 36.724 58.2365 37.3706C58.8115 38.0026 59.0757 38.5963 58.7173 39.0345Z" fill="#A0616A"/>
<path d="M53.9504 34.272C53.7907 34.2714 53.6312 34.2842 53.4737 34.3103C52.1207 34.5396 51.7217 35.7473 51.6081 36.5563C51.5717 36.8034 51.558 37.0532 51.5669 37.3027L50.3717 36.3962L49.9362 36.0659C48.888 35.7055 47.9541 35.0654 47.1443 34.3103C46.4418 33.6437 45.8116 32.9067 45.264 32.1113C44.7185 31.3274 44.2323 30.5049 43.8092 29.6506C43.6911 29.4122 43.6277 29.1511 43.6233 28.8858C43.6189 28.6205 43.6737 28.3576 43.7839 28.1155L45.264 24.8626L47.4273 20.1082C47.4432 19.9951 47.4607 19.8844 47.4797 19.7763C47.9087 17.3503 49.0581 16.2732 49.0581 16.2732H49.9362L50.5235 19.7763L51.2532 24.1284L50.7418 25.7732L49.5601 29.5716L50.6894 30.7811L53.9504 34.272Z" fill="#D0CDE1"/>
<path d="M54.9442 24.1319L55.6948 24.9955C55.9737 24.9431 56.2649 24.8815 56.5649 24.8122L56.3493 24.1319L56.8764 24.7384C60.0542 23.9676 63.9931 22.4691 63.9931 22.4691C63.9931 22.4691 59.7407 22.7766 56.5656 22.0925C55.1608 21.7898 53.7154 22.4766 53.1389 23.7757C52.8039 24.5308 52.8565 25.185 54.0449 25.185C54.4464 25.1782 54.8469 25.1411 55.2427 25.0739L54.9442 24.1319Z" fill="#D200B5"/>
<path d="M72.0565 38.3264V38.6787C72.0567 38.7754 72.0385 38.8713 72.0029 38.9614C71.9871 39.0015 71.968 39.0403 71.9458 39.0774C71.8757 39.1935 71.7762 39.2897 71.657 39.3564C71.5379 39.4231 71.4032 39.4582 71.2661 39.4581H44.9862C44.8492 39.4582 44.7145 39.4231 44.5953 39.3564C44.4761 39.2897 44.3766 39.1935 44.3065 39.0774C44.2843 39.0403 44.2652 39.0015 44.2494 38.9614C44.2138 38.8713 44.1956 38.7754 44.1958 38.6787V38.3264C44.1958 38.2241 44.2162 38.1227 44.2559 38.0281C44.2956 37.9335 44.3539 37.8476 44.4273 37.7752C44.5007 37.7028 44.5878 37.6454 44.6837 37.6063C44.7796 37.5671 44.8824 37.547 44.9862 37.547H46.501V37.3828C46.501 37.3785 46.5019 37.3743 46.5035 37.3703C46.5052 37.3664 46.5076 37.3628 46.5107 37.3598C46.5137 37.3567 46.5174 37.3543 46.5214 37.3527C46.5254 37.3511 46.5296 37.3503 46.534 37.3503H47.3243C47.3287 37.3503 47.333 37.3511 47.337 37.3527C47.341 37.3543 47.3446 37.3567 47.3477 37.3598C47.3507 37.3628 47.3532 37.3664 47.3548 37.3703C47.3565 37.3743 47.3573 37.3785 47.3573 37.3828V37.547H47.8511V37.3828C47.8511 37.3785 47.8519 37.3743 47.8536 37.3703C47.8552 37.3664 47.8576 37.3628 47.8607 37.3598C47.8638 37.3567 47.8674 37.3543 47.8714 37.3527C47.8754 37.3511 47.8797 37.3503 47.884 37.3503H48.6744C48.6787 37.3503 48.683 37.3511 48.687 37.3527C48.691 37.3543 48.6946 37.3567 48.6977 37.3598C48.7008 37.3628 48.7032 37.3664 48.7048 37.3703C48.7065 37.3743 48.7073 37.3785 48.7073 37.3828V37.547H49.2017V37.3828C49.2017 37.3785 49.2025 37.3743 49.2042 37.3703C49.2058 37.3664 49.2083 37.3628 49.2113 37.3598C49.2144 37.3567 49.218 37.3543 49.222 37.3527C49.226 37.3511 49.2303 37.3503 49.2346 37.3503H50.025C50.0293 37.3503 50.0336 37.3511 50.0376 37.3527C50.0416 37.3543 50.0453 37.3567 50.0483 37.3598C50.0514 37.3628 50.0538 37.3664 50.0555 37.3703C50.0571 37.3743 50.058 37.3785 50.058 37.3828V37.547H50.5517V37.3828C50.5517 37.3785 50.5526 37.3743 50.5542 37.3703C50.5559 37.3664 50.5583 37.3628 50.5614 37.3598C50.5644 37.3567 50.5681 37.3543 50.5721 37.3527C50.5761 37.3511 50.5804 37.3503 50.5847 37.3503H51.3751C51.3794 37.3503 51.3837 37.3511 51.3877 37.3527C51.3917 37.3543 51.3953 37.3567 51.3984 37.3598C51.4014 37.3628 51.4039 37.3664 51.4055 37.3703C51.4072 37.3743 51.408 37.3785 51.408 37.3828V37.547H51.9018V37.3828C51.9018 37.3785 51.9026 37.3743 51.9043 37.3703C51.9059 37.3664 51.9083 37.3628 51.9114 37.3598C51.9145 37.3567 51.9181 37.3543 51.9221 37.3527C51.9261 37.3511 51.9304 37.3503 51.9347 37.3503H52.7251C52.7294 37.3503 52.7337 37.3511 52.7377 37.3527C52.7417 37.3543 52.7454 37.3567 52.7484 37.3598C52.7515 37.3628 52.7539 37.3664 52.7556 37.3703C52.7572 37.3743 52.7581 37.3785 52.7581 37.3828V37.547H53.2524V37.3828C53.2524 37.3785 53.2532 37.3743 53.2549 37.3703C53.2566 37.3664 53.259 37.3628 53.262 37.3598C53.2651 37.3567 53.2687 37.3543 53.2727 37.3527C53.2767 37.3511 53.281 37.3503 53.2854 37.3503H54.0757C54.0801 37.3503 54.0843 37.3511 54.0883 37.3527C54.0924 37.3543 54.096 37.3567 54.099 37.3598C54.1021 37.3628 54.1045 37.3664 54.1062 37.3703C54.1078 37.3743 54.1087 37.3785 54.1087 37.3828V37.547H54.6024V37.3828C54.6024 37.3785 54.6033 37.3743 54.6049 37.3703C54.6066 37.3664 54.609 37.3628 54.6121 37.3598C54.6151 37.3567 54.6188 37.3543 54.6228 37.3527C54.6268 37.3511 54.6311 37.3503 54.6354 37.3503H60.8265C60.8309 37.3503 60.8351 37.3511 60.8391 37.3527C60.8432 37.3543 60.8468 37.3567 60.8498 37.3598C60.8529 37.3628 60.8553 37.3664 60.857 37.3703C60.8586 37.3743 60.8595 37.3785 60.8595 37.3828V37.547H61.3538V37.3828C61.3538 37.3785 61.3547 37.3743 61.3563 37.3703C61.358 37.3664 61.3604 37.3628 61.3635 37.3598C61.3665 37.3567 61.3702 37.3543 61.3742 37.3527C61.3782 37.3511 61.3825 37.3503 61.3868 37.3503H62.1772C62.1859 37.3503 62.1942 37.3538 62.2004 37.3599C62.2065 37.3659 62.21 37.3742 62.2101 37.3828V37.547H62.7039V37.3828C62.7039 37.3785 62.7047 37.3743 62.7064 37.3703C62.708 37.3664 62.7105 37.3628 62.7135 37.3598C62.7166 37.3567 62.7202 37.3543 62.7242 37.3527C62.7282 37.3511 62.7325 37.3503 62.7368 37.3503H63.5272C63.5315 37.3503 63.5358 37.3511 63.5398 37.3527C63.5438 37.3543 63.5475 37.3567 63.5505 37.3598C63.5536 37.3628 63.556 37.3664 63.5577 37.3703C63.5593 37.3743 63.5602 37.3785 63.5602 37.3828V37.547H64.0539V37.3828C64.0539 37.3785 64.0548 37.3743 64.0564 37.3703C64.0581 37.3664 64.0605 37.3628 64.0636 37.3598C64.0666 37.3567 64.0703 37.3543 64.0743 37.3527C64.0783 37.3511 64.0826 37.3503 64.0869 37.3503H64.8772C64.8816 37.3503 64.8859 37.3511 64.8899 37.3527C64.8939 37.3543 64.8975 37.3567 64.9006 37.3598C64.9036 37.3628 64.9061 37.3664 64.9077 37.3703C64.9094 37.3743 64.9102 37.3785 64.9102 37.3828V37.547H65.4046V37.3828C65.4045 37.3785 65.4054 37.3743 65.407 37.3703C65.4087 37.3664 65.4111 37.3628 65.4142 37.3598C65.4173 37.3567 65.4209 37.3543 65.4249 37.3527C65.4289 37.3511 65.4332 37.3503 65.4375 37.3503H66.2279C66.2365 37.3504 66.2448 37.3538 66.2509 37.3599C66.2569 37.366 66.2603 37.3742 66.2602 37.3828V37.547H66.7546V37.3828C66.7546 37.3785 66.7554 37.3743 66.7571 37.3703C66.7587 37.3664 66.7612 37.3628 66.7642 37.3598C66.7673 37.3567 66.7709 37.3543 66.7749 37.3527C66.7789 37.3511 66.7832 37.3503 66.7875 37.3503H67.5779C67.5823 37.3503 67.5865 37.3511 67.5905 37.3527C67.5945 37.3543 67.5982 37.3567 67.6012 37.3598C67.6043 37.3628 67.6067 37.3664 67.6084 37.3703C67.61 37.3743 67.6109 37.3785 67.6109 37.3828V37.547H68.1046V37.3828C68.1046 37.3785 68.1055 37.3743 68.1071 37.3703C68.1088 37.3664 68.1112 37.3628 68.1143 37.3598C68.1173 37.3567 68.121 37.3543 68.125 37.3527C68.129 37.3511 68.1333 37.3503 68.1376 37.3503H68.928C68.9323 37.3503 68.9366 37.3511 68.9406 37.3527C68.9446 37.3543 68.9482 37.3567 68.9513 37.3598C68.9543 37.3628 68.9568 37.3664 68.9584 37.3703C68.9601 37.3743 68.9609 37.3785 68.9609 37.3828V37.547H71.2661C71.3699 37.547 71.4727 37.5671 71.5686 37.6063C71.6645 37.6454 71.7516 37.7028 71.825 37.7752C71.8984 37.8476 71.9567 37.9335 71.9964 38.0281C72.0361 38.1227 72.0565 38.2241 72.0565 38.3264Z" fill="#3F3D56"/>
<path d="M79.6982 38.9613H36.5605V39.0774H79.6982V38.9613Z" fill="#3F3D56"/>
<path d="M69.9404 23.4906H60.1451V23.2915H55.7035V23.4906H45.8678C45.6921 23.4906 45.5236 23.5595 45.3993 23.682C45.275 23.8045 45.2052 23.9707 45.2052 24.144V37.3712C45.2052 37.5445 45.275 37.7107 45.3993 37.8332C45.5236 37.9558 45.6921 38.0246 45.8678 38.0246H69.9404C70.1162 38.0246 70.2847 37.9558 70.409 37.8332C70.5332 37.7107 70.603 37.5445 70.603 37.3712V24.144C70.603 24.0582 70.5859 23.9733 70.5526 23.894C70.5193 23.8147 70.4705 23.7427 70.409 23.682C70.3474 23.6213 70.2744 23.5732 70.194 23.5404C70.1136 23.5075 70.0274 23.4906 69.9404 23.4906Z" fill="#3F3D56"/>
<path d="M57.9234 29.5595C58.736 29.5595 59.3947 28.9099 59.3947 28.1085C59.3947 27.3072 58.736 26.6576 57.9234 26.6576C57.1108 26.6576 56.4521 27.3072 56.4521 28.1085C56.4521 28.9099 57.1108 29.5595 57.9234 29.5595Z" stroke="#D0CDE1" stroke-width="2" stroke-miterlimit="10"/>
<path d="M57.4526 30.0818C58.2652 30.0818 58.9239 29.4322 58.9239 28.6309C58.9239 27.8296 58.2652 27.18 57.4526 27.18C56.64 27.18 55.9813 27.8296 55.9813 28.6309C55.9813 29.4322 56.64 30.0818 57.4526 30.0818Z" fill="#D0CDE1"/>
<path d="M39.3822 38.375H37.7343V40H39.3822V38.375Z" fill="#D0CDE1"/>
<path d="M38.3819 37.0982V39.0714H40.3829V37.0982H38.3819ZM40.2958 38.9856H38.4684V37.1841H40.2958V38.9856Z" fill="#3F3D56"/>
<path d="M77.5176 38.375H75.8698V40H77.5176V38.375Z" fill="#D0CDE1"/>
<path d="M76.5174 37.0982V39.0714H78.5183V37.0982H76.5174ZM78.4312 38.9856H76.6039V37.1841H78.4312V38.9856Z" fill="#3F3D56"/>
<path d="M38.5661 13.3549C41.1449 13.3549 43.2354 11.2934 43.2354 8.75031C43.2354 6.20724 41.1449 4.14568 38.5661 4.14568C35.9874 4.14568 33.8969 6.20724 33.8969 8.75031C33.8969 11.2934 35.9874 13.3549 38.5661 13.3549Z" fill="#D200B5"/>
<path d="M40.1933 3.27848C39.7705 3.22545 39.3426 3.22545 38.9199 3.27848C37.978 3.40043 37.0914 3.78629 36.3652 4.39026C35.639 4.99422 35.1037 5.79095 34.8229 6.6859C34.6952 7.09376 34.6229 7.51651 34.6079 7.94311C34.6057 8.00241 34.6043 8.06241 34.6043 8.12241C34.6056 9.41725 35.1278 10.6587 36.0563 11.5743C36.9847 12.4899 38.2436 13.0048 39.5566 13.0061C39.662 13.0061 39.7674 13.0026 39.8714 12.9963C40.1155 12.9812 40.3582 12.9481 40.5973 12.8973C41.7391 12.6551 42.7574 12.0229 43.4724 11.1121C44.1873 10.2014 44.5529 9.07081 44.5046 7.92004C44.4563 6.76927 43.9971 5.67237 43.2082 4.82306C42.4194 3.97375 41.3515 3.42668 40.1933 3.27848H40.1933ZM41.1066 12.614H41.1059C40.7071 12.7482 40.292 12.8296 39.8714 12.8561C39.7674 12.8631 39.662 12.8666 39.5566 12.8666C38.2812 12.865 37.0584 12.3647 36.1566 11.4753C35.2547 10.586 34.7474 9.38017 34.7458 8.12241C34.7458 8.06241 34.7472 8.00241 34.7494 7.94311C34.798 6.71736 35.3255 5.55767 36.2216 4.70681C37.1176 3.85594 38.3127 3.37987 39.5566 3.37824C40.6963 3.37831 41.799 3.77739 42.6682 4.50439C43.5374 5.2314 44.1167 6.2391 44.3028 7.34797C44.4889 8.45684 44.2697 9.59486 43.6844 10.5593C43.0991 11.5237 42.1856 12.2518 41.1066 12.614H41.1066Z" fill="#3F3D56"/>
<path d="M39.6273 3.65732H39.4858V4.63406H39.6273V3.65732Z" fill="#3F3D56"/>
<path d="M36.405 4.91577L36.3049 5.01443L37.0053 5.70509L37.1053 5.60643L36.405 4.91577Z" fill="#3F3D56"/>
<path d="M35.0288 8.05263V8.19217H36.0193V8.05263H35.0288Z" fill="#3F3D56"/>
<path d="M36.3049 11.2304L36.405 11.329L37.1053 10.6384L37.0053 10.5397L36.3049 11.2304Z" fill="#3F3D56"/>
<path d="M42.0078 5.60643L42.1079 5.70509L42.8082 5.01443L42.7082 4.91577L42.0078 5.60643Z" fill="#3F3D56"/>
<path d="M43.0939 8.05265V8.19218H44.0844V8.05265H43.0939Z" fill="#3F3D56"/>
<path d="M42.1079 10.5397L42.0078 10.6384L42.7082 11.329L42.8082 11.2304L42.1079 10.5397Z" fill="#3F3D56"/>
<path d="M39.6273 11.6108H39.4858V12.5875H39.6273V11.6108Z" fill="#3F3D56"/>
<path d="M39.7688 7.84334C39.7076 7.79805 39.6331 7.77357 39.5566 7.77357C39.48 7.77357 39.4056 7.79805 39.3443 7.84334C39.3024 7.87474 39.2679 7.91473 39.2432 7.96055C39.2118 8.01955 39.1983 8.08617 39.2041 8.15253C39.2099 8.21889 39.2349 8.28222 39.2761 8.33503C39.3172 8.38784 39.3729 8.42793 39.4364 8.45055C39.4999 8.47318 39.5687 8.47739 39.6346 8.4627C39.7005 8.44801 39.7607 8.41503 39.8082 8.36765C39.8556 8.32028 39.8884 8.26049 39.9025 8.19535C39.9166 8.13021 39.9115 8.06245 39.8878 8.00007C39.8642 7.9377 39.8229 7.88331 39.7688 7.84334H39.7688ZM39.5566 8.33171C39.5003 8.33155 39.4465 8.30945 39.4067 8.27023C39.3669 8.23101 39.3445 8.17787 39.3443 8.12241C39.3446 8.08008 39.3577 8.03879 39.3818 8.00381C39.4026 7.9742 39.4307 7.95037 39.4635 7.93462C39.4963 7.91887 39.5327 7.91173 39.5691 7.91389C39.6055 7.91606 39.6407 7.92745 39.6714 7.94698C39.702 7.9665 39.727 7.99349 39.744 8.02534C39.761 8.05719 39.7693 8.09282 39.7683 8.12878C39.7672 8.16474 39.7567 8.19982 39.7379 8.23063C39.719 8.26144 39.6924 8.28692 39.6607 8.30463C39.6289 8.32234 39.5931 8.33167 39.5566 8.33171V8.33171Z" fill="#3F3D56"/>
<path d="M40.1933 2.05267H38.9199V3.30848H40.1933V2.05267Z" fill="#3F3D56"/>
<path d="M39.5566 2.26197C40.4943 2.26197 41.2545 1.99647 41.2545 1.66895C41.2545 1.34143 40.4943 1.07593 39.5566 1.07593C38.6188 1.07593 37.8587 1.34143 37.8587 1.66895C37.8587 1.99647 38.6188 2.26197 39.5566 2.26197Z" fill="#3F3D56"/>
<path d="M39.7688 5.47125H39.3443V7.84334H39.7688V5.47125Z" fill="#3F3D56"/>
<path d="M46.3003 12.7935H33V12.9331H46.3003V12.7935Z" fill="#3F3D56"/>
<path d="M41.8626 34.8076C41.9175 36.6618 40.8189 37.3414 39.4401 37.3811C39.4081 37.382 39.3762 37.3826 39.3444 37.3828C39.2805 37.3833 39.2172 37.3822 39.1545 37.3796C37.9075 37.3286 36.9205 36.6758 36.8694 34.9514C36.8166 33.1668 39.0627 30.848 39.2313 30.6765L39.2316 30.6763C39.238 30.6698 39.2412 30.6665 39.2412 30.6665C39.2412 30.6665 41.8077 32.9535 41.8626 34.8076Z" fill="#D0CDE1"/>
<path d="M39.3408 37.1001L40.2167 35.8156L39.3426 37.2382L39.3444 37.3828C39.2805 37.3833 39.2172 37.3822 39.1545 37.3796L39.1979 35.5218L39.1967 35.5074L39.1983 35.5047L39.2025 35.3291L38.2433 33.9558L39.2014 35.1977L39.2048 35.2348L39.2376 33.8312L38.4091 32.4074L39.2399 33.5846L39.2313 30.6765L39.2313 30.6668L39.2316 30.6763L39.2866 32.9683L40.0416 32.0373L39.289 33.1657L39.3055 34.4213L40.0003 33.1959L39.3081 34.6059L39.3172 35.304L40.3276 33.5971L39.3203 35.5476L39.3408 37.1001Z" fill="#3F3D56"/>
<path d="M79.998 34.8076C80.0529 36.6618 78.9543 37.3414 77.5755 37.3811C77.5435 37.382 77.5116 37.3826 77.4799 37.3828C77.4159 37.3833 77.3526 37.3822 77.2899 37.3796C76.043 37.3286 75.0559 36.6758 75.0049 34.9514C74.952 33.1668 77.1982 30.848 77.3667 30.6765L77.367 30.6763C77.3734 30.6698 77.3767 30.6665 77.3767 30.6665C77.3767 30.6665 79.9431 32.9535 79.998 34.8076Z" fill="#D0CDE1"/>
<path d="M77.4763 37.1001L78.3521 35.8156L77.4781 37.2382L77.4799 37.3828C77.4159 37.3833 77.3526 37.3822 77.2899 37.3796L77.3334 35.5218L77.3322 35.5074L77.3338 35.5047L77.3379 35.3291L76.3788 33.9558L77.3368 35.1977L77.3402 35.2348L77.373 33.8312L76.5446 32.4074L77.3754 33.5846L77.3667 30.6765L77.3667 30.6668L77.367 30.6763L77.422 32.9683L78.177 32.0373L77.4245 33.1657L77.4409 34.4213L78.1357 33.1959L77.4435 34.6059L77.4527 35.304L78.4631 33.5971L77.4557 35.5476L77.4763 37.1001Z" fill="#3F3D56"/>
<path d="M11.466 57H12.87L7.11 44.4H5.796L0.036 57H1.422L2.934 53.634H9.954L11.466 57ZM3.42 52.554L6.444 45.786L9.468 52.554H3.42ZM19.5623 47.46C18.0503 47.46 16.7543 48.108 15.9623 49.332V43.644H14.6843V57H15.9083V55.128C16.6823 56.406 17.9963 57.09 19.5623 57.09C22.2623 57.09 24.2783 55.128 24.2783 52.266C24.2783 49.404 22.2623 47.46 19.5623 47.46ZM19.4723 55.956C17.4563 55.956 15.9443 54.48 15.9443 52.266C15.9443 50.052 17.4563 48.576 19.4723 48.576C21.4703 48.576 23.0003 50.052 23.0003 52.266C23.0003 54.48 21.4703 55.956 19.4723 55.956ZM31.7076 47.46C30.0696 47.46 28.7916 48.126 28.1076 49.278V47.532H26.8836V57H28.1616V52.032C28.1616 49.872 29.4396 48.612 31.4736 48.612C33.2736 48.612 34.3176 49.638 34.3176 51.636V57H35.5956V51.51C35.5956 48.792 34.0116 47.46 31.7076 47.46ZM47.3624 52.266C47.3624 49.422 45.4364 47.46 42.7724 47.46C40.1084 47.46 38.1464 49.458 38.1464 52.266C38.1464 55.074 40.1624 57.09 43.1144 57.09C44.6084 57.09 45.9224 56.55 46.7684 55.542L46.0484 54.714C45.3284 55.542 44.3024 55.956 43.1504 55.956C41.0804 55.956 39.5684 54.642 39.4244 52.662H47.3444C47.3444 52.518 47.3624 52.374 47.3624 52.266ZM42.7724 48.558C44.6264 48.558 45.9764 49.854 46.1384 51.708H39.4244C39.5864 49.854 40.9364 48.558 42.7724 48.558ZM51.1876 49.386V47.532H49.9636V57H51.2416V52.176C51.2416 49.944 52.4476 48.684 54.4276 48.684C54.5176 48.684 54.6256 48.702 54.7336 48.702V47.46C52.9876 47.46 51.7816 48.126 51.1876 49.386ZM62.1692 57H70.5572V55.848H63.5012V44.4H62.1692V57ZM75.846 47.46C74.352 47.46 72.948 47.928 71.994 48.738L72.57 49.692C73.344 49.008 74.496 48.576 75.72 48.576C77.484 48.576 78.402 49.458 78.402 51.078V51.654H75.396C72.678 51.654 71.742 52.878 71.742 54.336C71.742 55.974 73.056 57.09 75.198 57.09C76.764 57.09 77.88 56.496 78.456 55.524V57H79.68V51.132C79.68 48.684 78.294 47.46 75.846 47.46ZM75.396 56.082C73.884 56.082 73.002 55.398 73.002 54.3C73.002 53.328 73.596 52.608 75.432 52.608H78.402V54.156C77.898 55.398 76.836 56.082 75.396 56.082ZM90.7283 47.532V49.35C89.9363 48.108 88.5683 47.46 86.9843 47.46C84.2843 47.46 82.2323 49.314 82.2323 52.032C82.2323 54.75 84.2843 56.64 86.9843 56.64C88.5323 56.64 89.8823 56.01 90.6743 54.804V56.01C90.6743 58.35 89.5763 59.448 87.1823 59.448C85.7243 59.448 84.3563 58.962 83.4563 58.152L82.8083 59.124C83.7983 60.06 85.4903 60.582 87.2183 60.582C90.3503 60.582 91.9523 59.106 91.9523 55.848V47.532H90.7283ZM87.1103 55.506C85.0223 55.506 83.5283 54.084 83.5283 52.032C83.5283 49.98 85.0223 48.576 87.1103 48.576C89.1983 48.576 90.7103 49.98 90.7103 52.032C90.7103 54.084 89.1983 55.506 87.1103 55.506ZM99.3961 57.09C102.168 57.09 104.202 55.074 104.202 52.266C104.202 49.458 102.168 47.46 99.3961 47.46C96.6241 47.46 94.5721 49.458 94.5721 52.266C94.5721 55.074 96.6241 57.09 99.3961 57.09ZM99.3961 55.956C97.3801 55.956 95.8681 54.48 95.8681 52.266C95.8681 50.052 97.3801 48.576 99.3961 48.576C101.412 48.576 102.906 50.052 102.906 52.266C102.906 54.48 101.412 55.956 99.3961 55.956Z" fill="#656565"/>
</svg>
