<svg width="47" height="40" viewBox="0 0 47 40" fill="none" xmlns="http://www.w3.org/2000/svg">
<path d="M25.6544 11.1396C28.0445 11.1396 29.9821 9.22883 29.9821 6.8718C29.9821 4.51478 28.0445 2.60403 25.6544 2.60403C23.2643 2.60403 21.3267 4.51478 21.3267 6.8718C21.3267 9.22883 23.2643 11.1396 25.6544 11.1396Z" fill="#A0616A"/>
<path d="M22.4243 9.00569C22.4243 9.00569 23.2397 15.0672 21.9853 15.7475C20.7309 16.4279 29.449 16.4897 29.449 16.4897C29.449 16.4897 27.5046 11.2324 28.3827 9.62421L22.4243 9.00569Z" fill="#A0616A"/>
<path d="M35.815 16.5204L35.0899 19.7763L33.5568 26.6646L33.5109 27.0418L32.9819 31.4091L32.6299 34.3103L32.394 36.2592C30.9592 36.9864 29.9193 37.4884 29.9193 37.4884C29.9193 37.4884 29.8298 37.0462 29.6856 36.4803C28.6787 36.778 26.8155 37.2719 25.2365 37.3706C25.8115 38.0026 26.0757 38.5963 25.7173 39.0345C24.6356 40.3554 20.17 37.5882 18.6081 36.5563C18.5717 36.8034 18.558 37.0532 18.5669 37.3027L17.3717 36.3961L17.4899 34.3103L17.6894 30.7811L17.9402 26.3553C17.8611 26.1658 17.7948 25.9713 17.7418 25.7732C17.3758 24.4894 16.9314 21.9259 16.5907 19.7763C16.3165 18.0462 16.1105 16.5843 16.0669 16.2732C16.061 16.2326 16.0581 16.2117 16.0581 16.2117L22.6747 13.3284C23.1449 14.4038 25.3407 14.7271 25.3407 14.7271C27.1598 14.6035 28.5857 13.6575 28.5857 13.6575L35.815 16.5204Z" fill="#D0CDE1"/>
<path d="M30.4213 36.2516C30.4213 36.2516 30.1411 36.3462 29.6856 36.4803C28.6787 36.778 26.8155 37.2719 25.2365 37.3706C23.877 37.4565 22.7283 37.2498 22.5182 36.3752C22.4281 35.9992 22.5558 35.6898 22.8342 35.4356C23.6652 34.6759 25.8356 34.4037 27.557 34.3103C28.0431 34.2842 28.4927 34.272 28.867 34.2674C29.5026 34.2592 29.9193 34.272 29.9193 34.272L29.9293 34.3103L30.4213 36.2516Z" fill="#A0616A"/>
<path d="M22.0542 2.83489L21.245 2.51543C21.245 2.51543 22.9369 0.678531 25.2909 0.838268L24.6288 0.119475C24.6288 0.119475 26.2471 -0.51944 27.7184 1.15772C28.4917 2.03937 29.3866 3.0757 29.9444 4.24311H30.8109L30.4493 5.02845L31.7151 5.81378L30.4159 5.67272C30.4933 6.10278 30.5052 6.54183 30.4511 6.97535C30.3954 7.409 30.171 7.80433 29.8253 8.07792C29.8253 8.07792 28.8218 6.02948 28.8218 5.71002V6.50868C28.8218 6.50868 28.0126 5.78989 28.0126 5.3107L27.5712 5.86976L27.3505 4.99124L24.6288 5.86976L25.0702 5.15098L23.3783 5.39057L24.0403 4.51205C24.0403 4.51205 22.1278 5.5503 22.0542 6.42882C21.9806 7.30733 21.4208 8.13977 21.4208 8.13977C21.4208 8.13977 19.9209 4.03286 22.0542 2.83489Z" fill="#2F2E41"/>
<path d="M40.5189 31.4886C40.0781 31.9598 38.9859 32.6696 37.6617 33.438C37.1691 33.7236 36.6448 34.0178 36.1098 34.3103C34.8333 35.0085 33.4968 35.7003 32.394 36.2592C30.9592 36.9864 29.9193 37.4884 29.9193 37.4884C29.9193 37.4884 29.8298 37.0461 29.6856 36.4803C29.4926 35.7229 29.2019 34.7438 28.8988 34.3103C28.8882 34.2952 28.8776 34.2813 28.867 34.2674C28.7787 34.153 28.6899 34.0863 28.6022 34.0863L32.9819 31.4091L34.8745 30.2518L33.5109 27.0418L31.8007 23.0153L32.833 19.7762L33.8705 16.5204H35.815C35.815 16.5204 36.4588 17.9063 37.2821 19.8389C37.4051 20.128 37.5322 20.4292 37.6617 20.7402C39.3554 24.8028 41.467 30.4758 40.5189 31.4886Z" fill="#D0CDE1"/>
<path d="M25.7173 39.0345C24.6356 40.3554 20.17 37.5882 18.6081 36.5563C18.2679 36.3317 18.0655 36.1895 18.0655 36.1895L19.4944 34.3103L19.947 33.7154C19.947 33.7154 20.3519 33.9273 20.9504 34.272C20.9722 34.2848 20.9939 34.2975 21.0163 34.3103C21.5324 34.6092 22.1804 34.9998 22.8342 35.4356C23.7364 36.0375 24.6486 36.724 25.2365 37.3706C25.8115 38.0026 26.0757 38.5963 25.7173 39.0345Z" fill="#A0616A"/>
<path d="M20.9504 34.272C20.7907 34.2714 20.6312 34.2842 20.4737 34.3103C19.1207 34.5396 18.7217 35.7473 18.6081 36.5563C18.5717 36.8034 18.558 37.0532 18.5669 37.3027L17.3717 36.3962L16.9362 36.0659C15.888 35.7055 14.9541 35.0654 14.1443 34.3103C13.4418 33.6437 12.8116 32.9067 12.264 32.1113C11.7185 31.3274 11.2323 30.5049 10.8092 29.6506C10.6911 29.4122 10.6277 29.1511 10.6233 28.8858C10.6189 28.6205 10.6737 28.3576 10.7839 28.1155L12.264 24.8626L14.4273 20.1082C14.4432 19.9951 14.4607 19.8844 14.4797 19.7763C14.9087 17.3503 16.0581 16.2732 16.0581 16.2732H16.9362L17.5235 19.7763L18.2532 24.1284L17.7418 25.7732L16.5601 29.5716L17.6894 30.7811L20.9504 34.272Z" fill="#D0CDE1"/>
<path d="M21.9442 24.1319L22.6948 24.9955C22.9737 24.9431 23.2649 24.8815 23.5649 24.8122L23.3493 24.1319L23.8764 24.7384C27.0542 23.9676 30.9931 22.4691 30.9931 22.4691C30.9931 22.4691 26.7407 22.7766 23.5656 22.0925C22.1608 21.7898 20.7154 22.4766 20.1389 23.7757C19.8039 24.5308 19.8565 25.185 21.0449 25.185C21.4464 25.1782 21.8469 25.1411 22.2427 25.0739L21.9442 24.1319Z" fill="#D200B5"/>
<path d="M39.0565 38.3264V38.6787C39.0567 38.7754 39.0385 38.8713 39.0029 38.9614C38.9871 39.0015 38.968 39.0403 38.9458 39.0774C38.8757 39.1935 38.7762 39.2897 38.657 39.3564C38.5379 39.4231 38.4032 39.4582 38.2661 39.4581H11.9862C11.8492 39.4582 11.7145 39.4231 11.5953 39.3564C11.4761 39.2897 11.3766 39.1935 11.3065 39.0774C11.2843 39.0403 11.2652 39.0015 11.2494 38.9614C11.2138 38.8713 11.1956 38.7754 11.1958 38.6787V38.3264C11.1958 38.2241 11.2162 38.1227 11.2559 38.0281C11.2956 37.9335 11.3539 37.8476 11.4273 37.7752C11.5007 37.7028 11.5878 37.6454 11.6837 37.6063C11.7796 37.5671 11.8824 37.547 11.9862 37.547H13.501V37.3828C13.501 37.3785 13.5019 37.3743 13.5035 37.3703C13.5052 37.3664 13.5076 37.3628 13.5107 37.3598C13.5137 37.3567 13.5174 37.3543 13.5214 37.3527C13.5254 37.3511 13.5296 37.3503 13.534 37.3503H14.3243C14.3287 37.3503 14.333 37.3511 14.337 37.3527C14.341 37.3543 14.3446 37.3567 14.3477 37.3598C14.3507 37.3628 14.3532 37.3664 14.3548 37.3703C14.3565 37.3743 14.3573 37.3785 14.3573 37.3828V37.547H14.8511V37.3828C14.8511 37.3785 14.8519 37.3743 14.8536 37.3703C14.8552 37.3664 14.8576 37.3628 14.8607 37.3598C14.8638 37.3567 14.8674 37.3543 14.8714 37.3527C14.8754 37.3511 14.8797 37.3503 14.884 37.3503H15.6744C15.6787 37.3503 15.683 37.3511 15.687 37.3527C15.691 37.3543 15.6946 37.3567 15.6977 37.3598C15.7008 37.3628 15.7032 37.3664 15.7048 37.3703C15.7065 37.3743 15.7073 37.3785 15.7073 37.3828V37.547H16.2017V37.3828C16.2017 37.3785 16.2025 37.3743 16.2042 37.3703C16.2058 37.3664 16.2083 37.3628 16.2113 37.3598C16.2144 37.3567 16.218 37.3543 16.222 37.3527C16.226 37.3511 16.2303 37.3503 16.2346 37.3503H17.025C17.0293 37.3503 17.0336 37.3511 17.0376 37.3527C17.0416 37.3543 17.0453 37.3567 17.0483 37.3598C17.0514 37.3628 17.0538 37.3664 17.0555 37.3703C17.0571 37.3743 17.058 37.3785 17.058 37.3828V37.547H17.5517V37.3828C17.5517 37.3785 17.5526 37.3743 17.5542 37.3703C17.5559 37.3664 17.5583 37.3628 17.5614 37.3598C17.5644 37.3567 17.5681 37.3543 17.5721 37.3527C17.5761 37.3511 17.5804 37.3503 17.5847 37.3503H18.3751C18.3794 37.3503 18.3837 37.3511 18.3877 37.3527C18.3917 37.3543 18.3953 37.3567 18.3984 37.3598C18.4014 37.3628 18.4039 37.3664 18.4055 37.3703C18.4072 37.3743 18.408 37.3785 18.408 37.3828V37.547H18.9018V37.3828C18.9018 37.3785 18.9026 37.3743 18.9043 37.3703C18.9059 37.3664 18.9083 37.3628 18.9114 37.3598C18.9145 37.3567 18.9181 37.3543 18.9221 37.3527C18.9261 37.3511 18.9304 37.3503 18.9347 37.3503H19.7251C19.7294 37.3503 19.7337 37.3511 19.7377 37.3527C19.7417 37.3543 19.7454 37.3567 19.7484 37.3598C19.7515 37.3628 19.7539 37.3664 19.7556 37.3703C19.7572 37.3743 19.7581 37.3785 19.7581 37.3828V37.547H20.2524V37.3828C20.2524 37.3785 20.2532 37.3743 20.2549 37.3703C20.2566 37.3664 20.259 37.3628 20.262 37.3598C20.2651 37.3567 20.2687 37.3543 20.2727 37.3527C20.2767 37.3511 20.281 37.3503 20.2854 37.3503H21.0757C21.0801 37.3503 21.0843 37.3511 21.0883 37.3527C21.0924 37.3543 21.096 37.3567 21.099 37.3598C21.1021 37.3628 21.1045 37.3664 21.1062 37.3703C21.1078 37.3743 21.1087 37.3785 21.1087 37.3828V37.547H21.6024V37.3828C21.6024 37.3785 21.6033 37.3743 21.6049 37.3703C21.6066 37.3664 21.609 37.3628 21.6121 37.3598C21.6151 37.3567 21.6188 37.3543 21.6228 37.3527C21.6268 37.3511 21.6311 37.3503 21.6354 37.3503H27.8265C27.8309 37.3503 27.8351 37.3511 27.8391 37.3527C27.8432 37.3543 27.8468 37.3567 27.8498 37.3598C27.8529 37.3628 27.8553 37.3664 27.857 37.3703C27.8586 37.3743 27.8595 37.3785 27.8595 37.3828V37.547H28.3538V37.3828C28.3538 37.3785 28.3547 37.3743 28.3563 37.3703C28.358 37.3664 28.3604 37.3628 28.3635 37.3598C28.3665 37.3567 28.3702 37.3543 28.3742 37.3527C28.3782 37.3511 28.3825 37.3503 28.3868 37.3503H29.1772C29.1859 37.3503 29.1942 37.3538 29.2004 37.3599C29.2065 37.3659 29.21 37.3742 29.2101 37.3828V37.547H29.7039V37.3828C29.7039 37.3785 29.7047 37.3743 29.7064 37.3703C29.708 37.3664 29.7105 37.3628 29.7135 37.3598C29.7166 37.3567 29.7202 37.3543 29.7242 37.3527C29.7282 37.3511 29.7325 37.3503 29.7368 37.3503H30.5272C30.5315 37.3503 30.5358 37.3511 30.5398 37.3527C30.5438 37.3543 30.5475 37.3567 30.5505 37.3598C30.5536 37.3628 30.556 37.3664 30.5577 37.3703C30.5593 37.3743 30.5602 37.3785 30.5602 37.3828V37.547H31.0539V37.3828C31.0539 37.3785 31.0548 37.3743 31.0564 37.3703C31.0581 37.3664 31.0605 37.3628 31.0636 37.3598C31.0666 37.3567 31.0703 37.3543 31.0743 37.3527C31.0783 37.3511 31.0826 37.3503 31.0869 37.3503H31.8772C31.8816 37.3503 31.8859 37.3511 31.8899 37.3527C31.8939 37.3543 31.8975 37.3567 31.9006 37.3598C31.9036 37.3628 31.9061 37.3664 31.9077 37.3703C31.9094 37.3743 31.9102 37.3785 31.9102 37.3828V37.547H32.4046V37.3828C32.4045 37.3785 32.4054 37.3743 32.407 37.3703C32.4087 37.3664 32.4111 37.3628 32.4142 37.3598C32.4173 37.3567 32.4209 37.3543 32.4249 37.3527C32.4289 37.3511 32.4332 37.3503 32.4375 37.3503H33.2279C33.2365 37.3504 33.2448 37.3538 33.2509 37.3599C33.2569 37.366 33.2603 37.3742 33.2602 37.3828V37.547H33.7546V37.3828C33.7546 37.3785 33.7554 37.3743 33.7571 37.3703C33.7587 37.3664 33.7612 37.3628 33.7642 37.3598C33.7673 37.3567 33.7709 37.3543 33.7749 37.3527C33.7789 37.3511 33.7832 37.3503 33.7875 37.3503H34.5779C34.5823 37.3503 34.5865 37.3511 34.5905 37.3527C34.5945 37.3543 34.5982 37.3567 34.6012 37.3598C34.6043 37.3628 34.6067 37.3664 34.6084 37.3703C34.61 37.3743 34.6109 37.3785 34.6109 37.3828V37.547H35.1046V37.3828C35.1046 37.3785 35.1055 37.3743 35.1071 37.3703C35.1088 37.3664 35.1112 37.3628 35.1143 37.3598C35.1173 37.3567 35.121 37.3543 35.125 37.3527C35.129 37.3511 35.1333 37.3503 35.1376 37.3503H35.928C35.9323 37.3503 35.9366 37.3511 35.9406 37.3527C35.9446 37.3543 35.9482 37.3567 35.9513 37.3598C35.9543 37.3628 35.9568 37.3664 35.9584 37.3703C35.9601 37.3743 35.9609 37.3785 35.9609 37.3828V37.547H38.2661C38.3699 37.547 38.4727 37.5671 38.5686 37.6063C38.6645 37.6454 38.7516 37.7028 38.825 37.7752C38.8984 37.8476 38.9567 37.9335 38.9964 38.0281C39.0361 38.1227 39.0565 38.2241 39.0565 38.3264Z" fill="#3F3D56"/>
<path d="M46.6982 38.9613H3.5605V39.0774H46.6982V38.9613Z" fill="#3F3D56"/>
<path d="M36.9404 23.4906H27.1451V23.2915H22.7035V23.4906H12.8678C12.6921 23.4906 12.5236 23.5595 12.3993 23.682C12.275 23.8045 12.2052 23.9707 12.2052 24.144V37.3712C12.2052 37.5445 12.275 37.7107 12.3993 37.8332C12.5236 37.9558 12.6921 38.0246 12.8678 38.0246H36.9404C37.1162 38.0246 37.2847 37.9558 37.409 37.8332C37.5332 37.7107 37.603 37.5445 37.603 37.3712V24.144C37.603 24.0582 37.5859 23.9733 37.5526 23.894C37.5193 23.8147 37.4705 23.7427 37.409 23.682C37.3474 23.6213 37.2744 23.5732 37.194 23.5404C37.1136 23.5075 37.0274 23.4906 36.9404 23.4906Z" fill="#3F3D56"/>
<path d="M24.9234 29.5595C25.736 29.5595 26.3947 28.9099 26.3947 28.1085C26.3947 27.3072 25.736 26.6576 24.9234 26.6576C24.1108 26.6576 23.4521 27.3072 23.4521 28.1085C23.4521 28.9099 24.1108 29.5595 24.9234 29.5595Z" stroke="#D0CDE1" stroke-width="2" stroke-miterlimit="10"/>
<path d="M24.4526 30.0818C25.2652 30.0818 25.9239 29.4322 25.9239 28.6309C25.9239 27.8296 25.2652 27.18 24.4526 27.18C23.64 27.18 22.9813 27.8296 22.9813 28.6309C22.9813 29.4322 23.64 30.0818 24.4526 30.0818Z" fill="#D0CDE1"/>
<path d="M6.38216 38.375H4.73433V40H6.38216V38.375Z" fill="#D0CDE1"/>
<path d="M5.38192 37.0982V39.0714H7.38285V37.0982H5.38192ZM7.29575 38.9856H5.46843V37.1841H7.29575V38.9856Z" fill="#3F3D56"/>
<path d="M44.5176 38.375H42.8698V40H44.5176V38.375Z" fill="#D0CDE1"/>
<path d="M43.5174 37.0982V39.0714H45.5183V37.0982H43.5174ZM45.4312 38.9856H43.6039V37.1841H45.4312V38.9856Z" fill="#3F3D56"/>
<path d="M5.56613 13.3549C8.14489 13.3549 10.2354 11.2934 10.2354 8.75031C10.2354 6.20724 8.14489 4.14568 5.56613 4.14568C2.98737 4.14568 0.896866 6.20724 0.896866 8.75031C0.896866 11.2934 2.98737 13.3549 5.56613 13.3549Z" fill="#D200B5"/>
<path d="M7.1933 3.27848C6.77052 3.22545 6.34264 3.22545 5.91986 3.27848C4.97798 3.40043 4.09135 3.78629 3.36517 4.39026C2.63899 4.99422 2.10374 5.79095 1.82294 6.6859C1.69523 7.09376 1.62291 7.51651 1.60787 7.94311C1.60575 8.00241 1.60433 8.06241 1.60433 8.12241C1.60564 9.41725 2.12782 10.6587 3.05626 11.5743C3.9847 12.4899 5.24357 13.0048 6.55658 13.0061C6.66199 13.0061 6.7674 13.0026 6.8714 12.9963C7.11553 12.9812 7.35816 12.9481 7.59726 12.8973C8.73908 12.6551 9.7574 12.0229 10.4724 11.1121C11.1873 10.2014 11.5529 9.07081 11.5046 7.92004C11.4563 6.76927 10.9971 5.67237 10.2082 4.82306C9.41936 3.97375 8.35151 3.42668 7.1933 3.27848H7.1933ZM8.10663 12.614H8.10592C7.70709 12.7482 7.29196 12.8296 6.8714 12.8561C6.7674 12.8631 6.66199 12.8666 6.55658 12.8666C5.28116 12.865 4.05844 12.3647 3.15658 11.4753C2.25473 10.586 1.74738 9.38017 1.74582 8.12241C1.74582 8.06241 1.74724 8.00241 1.74936 7.94311C1.79799 6.71736 2.32554 5.55767 3.22158 4.70681C4.11762 3.85594 5.31267 3.37987 6.55658 3.37824C7.69631 3.37831 8.799 3.77739 9.66821 4.50439C10.5374 5.2314 11.1167 6.2391 11.3028 7.34797C11.4889 8.45684 11.2697 9.59486 10.6844 10.5593C10.0991 11.5237 9.18556 12.2518 8.10663 12.614H8.10663Z" fill="#3F3D56"/>
<path d="M6.62733 3.65732H6.48583V4.63406H6.62733V3.65732Z" fill="#3F3D56"/>
<path d="M3.40499 4.91577L3.30494 5.01443L4.00529 5.70509L4.10534 5.60643L3.40499 4.91577Z" fill="#3F3D56"/>
<path d="M2.02881 8.05263V8.19217H3.01926V8.05263H2.02881Z" fill="#3F3D56"/>
<path d="M3.30494 11.2304L3.40499 11.329L4.10534 10.6384L4.00529 10.5397L3.30494 11.2304Z" fill="#3F3D56"/>
<path d="M9.00782 5.60643L9.10787 5.70509L9.80822 5.01443L9.70817 4.91577L9.00782 5.60643Z" fill="#3F3D56"/>
<path d="M10.0939 8.05265V8.19218H11.0844V8.05265H10.0939Z" fill="#3F3D56"/>
<path d="M9.10787 10.5397L9.00782 10.6384L9.70817 11.329L9.80822 11.2304L9.10787 10.5397Z" fill="#3F3D56"/>
<path d="M6.62733 11.6108H6.48583V12.5875H6.62733V11.6108Z" fill="#3F3D56"/>
<path d="M6.76882 7.84334C6.70759 7.79805 6.63312 7.77357 6.55658 7.77357C6.48004 7.77357 6.40557 7.79805 6.34434 7.84334C6.30243 7.87474 6.26791 7.91473 6.24318 7.96055C6.21184 8.01955 6.19828 8.08617 6.20411 8.15253C6.20994 8.21889 6.23491 8.28222 6.27607 8.33503C6.31723 8.38784 6.37287 8.42793 6.4364 8.45055C6.49992 8.47318 6.56869 8.47739 6.63457 8.4627C6.70045 8.44801 6.76069 8.41503 6.80817 8.36765C6.85565 8.32028 6.88838 8.26049 6.9025 8.19535C6.91662 8.13021 6.91153 8.06245 6.88785 8.00007C6.86416 7.9377 6.82286 7.88331 6.76882 7.84334H6.76882ZM6.55658 8.33171C6.50034 8.33155 6.44645 8.30945 6.40669 8.27023C6.36692 8.23101 6.34451 8.17787 6.34434 8.12241C6.34462 8.08008 6.35767 8.03879 6.38184 8.00381C6.40257 7.9742 6.43069 7.95037 6.4635 7.93462C6.4963 7.91887 6.53267 7.91173 6.56908 7.91389C6.6055 7.91606 6.64073 7.92745 6.67138 7.94698C6.70202 7.9665 6.72704 7.99349 6.74401 8.02534C6.76099 8.05719 6.76934 8.09282 6.76826 8.12878C6.76719 8.16474 6.75672 8.19982 6.73787 8.23063C6.71903 8.26144 6.69244 8.28692 6.66068 8.30463C6.62892 8.32234 6.59306 8.33167 6.55658 8.33171V8.33171Z" fill="#3F3D56"/>
<path d="M7.1933 2.05267H5.91987V3.30848H7.1933V2.05267Z" fill="#3F3D56"/>
<path d="M6.55658 2.26197C7.49431 2.26197 8.25449 1.99647 8.25449 1.66895C8.25449 1.34143 7.49431 1.07593 6.55658 1.07593C5.61885 1.07593 4.85867 1.34143 4.85867 1.66895C4.85867 1.99647 5.61885 2.26197 6.55658 2.26197Z" fill="#3F3D56"/>
<path d="M6.76882 5.47125H6.34435V7.84334H6.76882V5.47125Z" fill="#3F3D56"/>
<path d="M13.3003 12.7935H0V12.9331H13.3003V12.7935Z" fill="#3F3D56"/>
<path d="M8.86258 34.8076C8.9175 36.6618 7.81885 37.3414 6.44009 37.3811C6.40806 37.382 6.37618 37.3826 6.34444 37.3828C6.2805 37.3833 6.21718 37.3822 6.15449 37.3796C4.90753 37.3286 3.92049 36.6758 3.86943 34.9514C3.81658 33.1668 6.06274 30.848 6.23126 30.6765L6.23156 30.6763C6.23796 30.6698 6.24124 30.6665 6.24124 30.6665C6.24124 30.6665 8.80767 32.9535 8.86258 34.8076Z" fill="#D0CDE1"/>
<path d="M6.34082 37.1001L7.21667 35.8156L6.34262 37.2382L6.34444 37.3828C6.2805 37.3833 6.21718 37.3822 6.15448 37.3796L6.19793 35.5218L6.19674 35.5074L6.19834 35.5047L6.2025 35.3291L5.24335 33.9558L6.20136 35.1977L6.20476 35.2348L6.23757 33.8312L5.40913 32.4074L6.23993 33.5846L6.23126 30.6765L6.23128 30.6668L6.23156 30.6763L6.28656 32.9683L7.04159 32.0373L6.28903 33.1657L6.30551 34.4213L7.00029 33.1959L6.30806 34.6059L6.31723 35.304L7.32763 33.5971L6.32031 35.5476L6.34082 37.1001Z" fill="#3F3D56"/>
<path d="M46.998 34.8076C47.0529 36.6618 45.9543 37.3414 44.5755 37.3811C44.5435 37.382 44.5116 37.3826 44.4799 37.3828C44.4159 37.3833 44.3526 37.3822 44.2899 37.3796C43.043 37.3286 42.0559 36.6758 42.0049 34.9514C41.952 33.1668 44.1982 30.848 44.3667 30.6765L44.367 30.6763C44.3734 30.6698 44.3767 30.6665 44.3767 30.6665C44.3767 30.6665 46.9431 32.9535 46.998 34.8076Z" fill="#D0CDE1"/>
<path d="M44.4763 37.1001L45.3521 35.8156L44.4781 37.2382L44.4799 37.3828C44.4159 37.3833 44.3526 37.3822 44.2899 37.3796L44.3334 35.5218L44.3322 35.5074L44.3338 35.5047L44.3379 35.3291L43.3788 33.9558L44.3368 35.1977L44.3402 35.2348L44.373 33.8312L43.5446 32.4074L44.3754 33.5846L44.3667 30.6765L44.3667 30.6668L44.367 30.6763L44.422 32.9683L45.177 32.0373L44.4245 33.1657L44.4409 34.4213L45.1357 33.1959L44.4435 34.6059L44.4527 35.304L45.4631 33.5971L44.4557 35.5476L44.4763 37.1001Z" fill="#3F3D56"/>
</svg>
