<svg width="725" height="604" viewBox="0 0 725 604" fill="none" xmlns="http://www.w3.org/2000/svg">
<g clip-path="url(#clip0)">
<path opacity="0.1" d="M515.268 603.993C556.173 603.993 589.333 600.725 589.333 596.695C589.333 592.665 556.173 589.398 515.268 589.398C474.362 589.398 441.202 592.665 441.202 596.695C441.202 600.725 474.362 603.993 515.268 603.993Z" fill="#D200B5"/>
<path opacity="0.1" d="M317.415 8.83501C350.035 -3.28426 389.747 7.13875 423.661 22.3402C530.173 70.0954 607.77 160.748 669.422 253.104C691.744 286.546 712.947 321.46 721.339 358.792C738.425 434.778 693.86 513.441 618.068 541.007C592.294 550.391 563.978 554.238 535.618 556.382C485.189 560.2 432.977 558.684 382.952 544.544C347.277 534.439 313.53 518.183 281.162 500.225C190.768 450.044 108.217 384.879 48.7753 305.277C22.705 270.363 0.649959 231.002 0.0144503 190.718C-0.621059 150.433 25.6442 109.954 68.8588 103.104C86.7253 100.274 105.624 103.219 124.061 106.251C151.208 110.719 178.722 115.418 205.558 113.469C233.282 111.441 269.34 100.614 274.395 74.1592C279.747 45.7558 284.838 20.9398 317.415 8.83501Z" fill="#D200B5"/>
<path d="M176.224 554.938C176.224 554.938 211.076 552.838 206.966 577.25C206.966 577.25 207.782 581.58 203.868 583.522C203.868 583.522 203.811 581.71 200.294 582.324C199.044 582.538 197.774 582.601 196.509 582.512C194.799 582.393 193.175 581.722 191.88 580.599C191.88 580.599 182.08 576.557 178.275 560.547C178.275 560.547 175.451 557.06 175.567 556.158L181.445 558.67C181.445 558.67 179.437 562.914 181.019 566.437C181.019 566.437 181.207 558.829 182.34 559.002C182.564 559.038 185.395 560.446 185.395 560.446C185.395 560.446 181.936 567.83 184.543 573.2C184.543 573.2 183.554 564.098 186.471 560.98L190.616 563.398C190.616 563.398 186.572 571.027 189.317 577.25C189.317 577.25 188.594 567.7 191.483 563.983L195.238 566.87C195.238 566.87 191.44 574.391 193.758 579.559C193.758 579.559 194.054 568.436 196.047 567.599C196.047 567.599 199.333 570.486 199.831 571.684C199.831 571.684 197.232 577.141 198.842 580.021C198.842 580.021 199.831 572.615 200.647 572.579C200.647 572.579 203.912 577.488 204.258 580.851C204.258 580.851 204.114 575.849 201.435 572.11C201.435 572.11 204.598 572.652 206.446 574.701C206.446 574.701 205.934 571.23 200.633 570.926C200.633 570.926 197.932 567.209 197.203 566.978C197.203 566.978 202.482 566.538 205.681 567.96C205.681 567.96 202.864 564.683 196.235 566.17L192.53 563.152C192.53 563.152 199.485 562.2 202.424 563.254C202.424 563.254 199.037 560.366 191.534 562.467L187.504 560.056C187.504 560.056 193.426 558.778 196.957 559.24C196.957 559.24 193.231 557.234 186.32 559.406L183.431 558.114C183.431 558.114 187.764 557.262 189.042 557.125C190.32 556.988 190.378 556.642 190.378 556.642C187.629 556.181 184.806 556.494 182.225 557.544C182.225 557.544 176.115 555.357 176.224 554.938Z" fill="#D200B5"/>
<path opacity="0.1" d="M200.229 589.816C213.853 589.816 224.898 587.952 224.898 585.651C224.898 583.351 213.853 581.487 200.229 581.487C186.604 581.487 175.559 583.351 175.559 585.651C175.559 587.952 186.604 589.816 200.229 589.816Z" fill="#D200B5"/>
<path d="M129.535 538.517C129.535 538.517 149.186 537.333 146.868 551.098C146.99 551.796 146.887 552.515 146.575 553.15C146.262 553.786 145.755 554.306 145.127 554.635C145.127 554.635 145.091 553.617 143.112 553.964C142.409 554.084 141.693 554.118 140.982 554.065C140.015 554.005 139.096 553.627 138.368 552.989C138.368 552.989 132.85 550.701 130.684 541.678C130.684 541.678 129.095 539.708 129.153 539.203L132.475 540.646C132.475 540.646 131.341 543.043 132.229 545.028C132.229 545.028 132.337 540.733 132.951 540.834C133.081 540.834 134.677 541.664 134.677 541.664C134.677 541.664 132.727 545.829 134.201 548.882C134.201 548.882 133.637 543.75 135.284 541.989L137.617 543.353C137.617 543.353 135.342 547.684 136.894 551.163C136.894 551.163 136.497 545.778 138.115 543.685L140.231 545.331C140.231 545.331 138.064 549.568 139.4 552.484C139.4 552.484 139.566 546.211 140.693 545.742C140.693 545.742 142.542 547.374 142.823 548.045C142.823 548.045 141.379 551.12 142.267 552.744C142.267 552.744 142.823 548.572 143.286 548.55C143.286 548.55 145.127 551.315 145.315 553.213C145.223 551.46 144.675 549.761 143.726 548.283C144.789 548.477 145.77 548.979 146.55 549.727C146.55 549.727 146.268 547.771 143.271 547.597C143.271 547.597 141.747 545.497 141.343 545.374C141.343 545.374 144.318 545.122 146.124 545.923C146.124 545.923 144.535 544.075 140.794 544.912L138.707 543.209C138.707 543.209 142.628 542.675 144.289 543.266C144.289 543.266 142.376 541.635 138.144 542.826L135.876 541.462C137.623 541.08 139.412 540.928 141.198 541.007C141.198 541.007 139.104 539.874 135.205 541.101L133.58 540.379C133.58 540.379 136.028 539.896 136.743 539.823C137.458 539.751 137.501 539.549 137.501 539.549C135.95 539.292 134.357 539.469 132.901 540.062C132.901 540.062 129.478 538.755 129.535 538.517Z" fill="#D200B5"/>
<path opacity="0.1" d="M143.069 558.179C150.751 558.179 156.978 557.126 156.978 555.826C156.978 554.527 150.751 553.473 143.069 553.473C135.387 553.473 129.16 554.527 129.16 555.826C129.16 557.126 135.387 558.179 143.069 558.179Z" fill="#D200B5"/>
<path d="M612.963 551.748C612.963 551.748 636.686 550.304 633.906 566.906C634.048 567.749 633.921 568.616 633.542 569.383C633.164 570.15 632.553 570.778 631.797 571.179C631.797 571.179 631.754 569.945 629.363 570.363C628.512 570.508 627.646 570.549 626.785 570.486C625.621 570.411 624.515 569.954 623.636 569.187C623.636 569.187 616.964 566.437 614.371 555.537C614.371 555.537 612.45 553.163 612.529 552.556L616.53 554.26C616.53 554.26 615.165 557.147 616.241 559.551C616.241 559.551 616.371 554.368 617.137 554.498C617.296 554.498 619.217 555.494 619.217 555.494C619.217 555.494 616.862 560.547 618.639 564.156C618.639 564.156 617.967 557.963 619.953 555.841L622.77 557.479C622.77 557.479 620.018 562.676 621.889 566.913C621.889 566.913 621.405 560.417 623.333 557.883L625.89 559.875C625.89 559.875 623.304 564.993 624.879 568.537C624.879 568.537 625.088 560.973 626.446 560.395C626.446 560.395 628.677 562.366 629.017 563.174C629.017 563.174 627.247 566.892 628.345 568.855C628.345 568.855 629.017 563.802 629.573 563.802C629.573 563.802 631.797 567.144 632.028 569.432C631.92 567.317 631.261 565.266 630.114 563.485C631.398 563.727 632.582 564.34 633.523 565.246C633.523 565.246 633.176 562.885 629.558 562.676C629.558 562.676 627.724 560.143 627.233 559.991C627.233 559.991 630.844 559.688 633.01 560.655C633.01 560.655 631.089 558.432 626.576 559.442L624.055 557.385C624.055 557.385 628.785 556.736 630.793 557.45C630.793 557.45 628.482 555.48 623.376 556.916L620.632 555.278C620.632 555.278 624.662 554.411 627.067 554.722C627.067 554.722 624.532 553.358 619.845 554.837L617.881 553.957C617.881 553.957 620.834 553.372 621.701 553.285C622.568 553.199 622.611 552.953 622.611 552.953C620.741 552.641 618.821 552.854 617.065 553.567C617.065 553.567 612.89 552.022 612.963 551.748Z" fill="#D200B5"/>
<path opacity="0.1" d="M629.298 575.495C638.571 575.495 646.089 574.225 646.089 572.659C646.089 571.092 638.571 569.822 629.298 569.822C620.025 569.822 612.508 571.092 612.508 572.659C612.508 574.225 620.025 575.495 629.298 575.495Z" fill="#D200B5"/>
<path d="M589.326 376.513C588.871 373.971 588.608 371.399 588.539 368.818C588.539 365.722 584.329 362.979 584.329 362.979C584.329 362.979 581.729 356.966 579.996 356.078C578.262 355.19 572.911 347.323 572.911 347.323C572.85 345.771 572.284 344.281 571.301 343.078C569.698 340.972 568.233 338.763 566.917 336.467C566.195 335.586 566.556 334.965 565.473 329.833C565.415 329.566 565.35 329.306 565.271 329.061C565.271 328.945 565.198 328.844 565.155 328.729C566.305 327.576 567.106 326.123 567.468 324.536C567.829 322.95 567.736 321.293 567.199 319.757C567.004 319.146 566.65 318.598 566.173 318.169C564.953 317.173 563.003 317.584 561.746 316.638L563.082 310.734C563.4 309.29 563.566 307.464 562.303 306.685C561.828 306.46 561.329 306.292 560.815 306.187C558.648 305.465 557.392 303.177 556.829 300.975C556.287 298.854 556.14 296.652 556.395 294.479C556.641 292.385 557.255 290.35 557.478 288.249C557.886 284.364 556.95 280.457 554.828 277.177C554.003 275.761 552.787 274.614 551.326 273.871C549.99 273.272 548.437 273.149 547.188 272.427C544.501 270.717 544.638 266.653 542.493 264.321C540.349 261.99 536.55 261.997 533.423 262.798C530.296 263.599 527.183 264.964 523.977 264.624C521.912 264.393 519.976 263.455 517.904 263.239C517.311 263.182 516.713 263.209 516.127 263.318V263.253C514.596 263.527 513.188 264.379 512.827 265.83C512.746 266.175 512.712 266.529 512.726 266.884C512.726 267.728 512.928 268.609 512.942 269.417C512.969 269.738 512.931 270.062 512.83 270.368C512.73 270.674 512.569 270.957 512.357 271.2C511.946 271.64 511.339 271.871 510.913 272.326C510.739 272.5 510.603 272.708 510.512 272.936C510.422 273.164 510.379 273.409 510.386 273.654C510.386 274.939 511.989 276.072 513.065 276.592H513.108C512.819 276.881 512.531 277.184 512.263 277.494C509.179 280.976 507.478 285.468 507.483 290.119C507.509 293.875 508.633 297.542 510.717 300.669C512.8 303.795 515.753 306.245 519.211 307.717L519.059 308.186C518.755 309.114 518.401 310.025 517.997 310.914C517.25 310.663 516.457 310.578 515.674 310.666C514.891 310.753 514.136 311.01 513.462 311.42C511.397 312.863 507.36 312.748 506.284 312.481C505.208 312.214 494.007 310.799 493.104 311.153C492.202 311.506 490.418 309.918 489.255 312.04C488.092 314.163 487.551 315.31 486.366 315.844C485.182 316.379 483.138 318.053 483.413 318.407C483.687 318.761 480.452 320.883 480.452 320.883C480.452 320.883 477.672 323.77 476.061 324.152C474.451 324.535 471.042 326.722 471.042 326.722L467.092 329.812C467.092 329.812 464.138 330.259 465.034 328.224C465.929 326.188 463.416 323.626 463.416 323.626C463.416 323.626 458.397 313.455 458.397 311.355C458.397 309.254 454.273 300.297 454.273 300.297L453.768 300.246L453.537 299.589C452.778 297.46 451.796 294.847 451.045 293.317C449.601 290.393 448.713 290.09 448.713 290.09C448.713 290.09 431.323 277.04 420.028 281.017C408.733 284.994 440.646 296.846 443.513 298.088C444.517 298.521 445.239 299.921 445.744 301.56C443.2 302.786 441.059 304.711 439.57 307.11C439.57 307.11 446.474 322.406 446.654 326.21C446.835 330.014 451.406 340.646 451.406 340.646C451.406 340.646 453.111 348.521 462.34 348.073C462.34 348.073 475.072 350.412 477.852 348.073C480.632 345.735 483.138 343.901 484.489 343.634C485.482 343.308 486.355 342.692 486.995 341.866C486.995 341.866 482.784 368.392 480.719 370.695C478.654 372.998 460.404 402.78 466.955 408.107C472.142 412.122 477.624 415.741 483.355 418.934C483.911 419.208 485.579 416.429 487.962 414.459C487.962 414.957 487.962 415.462 487.962 415.996C488.006 426.592 489.407 442.703 491.342 446.312C494.231 451.618 493.047 461.875 493.047 461.875C494.565 462.589 496.214 462.985 497.892 463.037C497.979 463.383 498.08 463.759 498.174 464.119C499.755 470.089 502.319 479.321 503.626 481.775C505.598 485.492 507.028 497.258 507.028 497.258C507.028 497.258 508.198 508.807 507.75 510.431C507.577 511.045 508.335 515.852 509.526 521.98C508.804 530.274 507.432 546.262 507.201 552.044C507.201 552.152 507.201 552.26 507.201 552.361V552.462C507.205 552.527 507.205 552.592 507.201 552.657C507.201 552.787 507.201 552.903 507.201 553.011C507.179 553.375 507.193 553.74 507.244 554.101C507.334 554.651 507.292 555.215 507.122 555.747C506.611 557.345 505.961 558.896 505.179 560.381C504.85 561.11 504.56 561.857 504.312 562.618C503.59 562.936 502.709 563.708 502.218 565.592C501.323 569.042 499.979 578.585 499.979 578.585C499.979 578.585 499.438 584.424 498.369 585.752C497.3 587.081 496.202 595.389 503.836 596.45C511.469 597.511 514.769 592.408 514.769 592.408L514.502 569.252V569.208C514.656 569.014 514.79 568.803 514.899 568.581V568.523C514.95 568.414 515.008 568.299 515.058 568.169L515.123 567.996L515.239 567.714C515.235 567.681 515.235 567.647 515.239 567.613C515.979 565.395 516.202 563.037 515.889 560.72V560.604V560.424C515.889 560.366 515.889 560.301 515.889 560.244V559.883C515.889 559.839 515.889 559.789 515.889 559.746C515.889 559.592 515.903 559.433 515.932 559.269C515.932 559.269 515.932 559.211 515.932 559.182L515.975 558.901V558.778C515.975 558.684 515.975 558.591 516.033 558.49C516.03 558.466 516.03 558.441 516.033 558.417C516.105 558.085 516.192 557.696 516.286 557.378V557.299L516.394 556.952C516.503 556.584 516.625 556.23 516.755 555.84V555.768C516.755 555.653 516.835 555.537 516.878 555.429V555.386C517.008 555.032 517.145 554.664 517.275 554.361L517.311 554.267L517.427 553.978L517.463 553.892L517.737 553.249L519.853 559.782C519.853 559.782 521.023 564.647 520.395 565.794C519.767 566.942 521.117 571.72 522.005 571.807L521.175 577.82C520.726 581.135 520.458 584.472 520.373 587.817C520.316 588.199 520.258 588.539 520.215 588.77C519.637 591.852 521.023 596.63 521.023 596.63C528.101 604.996 536.536 597.28 536.536 597.28C536.536 597.28 537.518 592.855 536.536 591.974C535.553 591.094 535.994 587.904 535.994 587.904C535.994 587.904 536.442 580.028 536.528 574.283C536.615 568.537 531.827 563.456 531.827 563.456L531.56 563.694C530.686 561.442 529.689 558.814 529.899 557.638C530.26 555.602 528.909 534.114 528.909 534.114C529.408 528.353 529.515 522.565 529.227 516.79C529.343 515.816 529.451 514.856 529.559 513.903C530.101 509.283 530.542 505.335 530.715 503.264V503.018C530.758 502.462 530.78 502.065 530.773 501.878C530.773 501.156 530.773 500.333 530.845 499.431C531.011 496.948 531.401 494.183 531.401 494.183L533.279 482.771C533.279 482.771 534.723 477.199 536.781 474.109L537.027 473.72C537.106 473.583 537.185 473.431 537.272 473.272L537.308 473.207C537.388 473.056 537.474 472.897 537.554 472.731L537.59 472.666C537.879 472.096 538.189 471.439 538.514 470.717C538.514 470.659 538.565 470.609 538.587 470.551L538.832 470.002C538.832 469.93 538.89 469.858 538.926 469.786C538.962 469.714 539.078 469.418 539.157 469.237C539.193 469.164 539.224 469.09 539.251 469.013C539.345 468.797 539.446 468.573 539.54 468.342L539.677 468.01C539.742 467.844 539.814 467.678 539.886 467.512L540.06 467.072C540.11 466.963 540.154 466.855 540.197 466.747L540.392 466.249C540.392 466.177 540.457 466.097 540.486 466.025C540.999 464.747 541.49 463.484 541.93 462.337C542.067 461.976 542.205 461.615 542.327 461.297C546.92 461.579 550.04 461.831 550.04 461.831C550.04 461.831 551.484 451.488 551.022 444.681C550.719 440.033 551.586 434.186 552.156 430.967C552.221 430.613 552.279 430.295 552.337 430.007L552.459 430.108C554.705 431.876 556.316 426.037 556.316 426.037C556.316 426.037 555.709 420.587 554.871 413.982L554.785 413.325C556.079 413.601 557.388 413.801 558.706 413.925C558.706 413.925 559.428 413.86 560.418 413.737C563.155 415.32 566.043 416.626 569.04 417.635L573.814 408.829C574.711 407.003 575.762 405.257 576.955 403.61C578.4 401.841 583.498 396.182 583.412 395.121C583.325 394.06 585.116 387.954 586.907 385.211C588.698 382.468 589.413 376.953 589.326 376.513ZM569.423 383.233C567.538 384.027 565.747 388.452 565.661 389.78C565.574 391.108 563.595 396.94 561.537 397.648C559.638 398.297 556.012 401.632 555.435 402.166C554.843 402.217 554.171 402.296 553.47 402.412C552.683 396.832 551.903 392.212 551.405 391.281C549.961 388.625 552.987 380.136 552.987 380.136C552.987 380.136 553.283 371.561 555.153 369.526C557.023 367.49 556.597 362.358 556.597 362.358C556.597 362.358 557.045 360.236 557.226 359.269C557.406 358.302 559.89 359.269 559.912 359.269C559.912 359.269 564.751 361.918 565.473 365.895C566.195 369.872 571.481 376.773 571.481 376.773C571.481 376.773 570.672 379.162 571.481 380.382C572.29 381.602 571.308 382.439 569.423 383.233Z" fill="url(#paint0_linear)"/>
<path d="M439.772 307.652C441.244 305.225 443.4 303.285 445.968 302.076C448.537 300.867 451.406 300.441 454.215 300.852V311.181H447.94L443.029 309.94L439.772 307.652Z" fill="#4C4981"/>
<path opacity="0.1" d="M439.772 307.652C441.244 305.225 443.4 303.285 445.968 302.076C448.537 300.867 451.406 300.441 454.215 300.852V311.181H447.94L443.029 309.94L439.772 307.652Z" fill="black"/>
<path d="M454.685 303.588L446.994 308.973C446.994 308.973 446.929 307.897 446.734 306.425C446.351 303.639 445.492 299.459 443.636 298.651C440.812 297.409 409.376 285.586 420.526 281.609C431.677 277.632 448.785 290.668 448.785 290.668C448.785 290.668 449.666 290.971 451.074 293.88C451.796 295.41 452.786 298.016 453.529 300.145C454.215 302.065 454.685 303.588 454.685 303.588Z" fill="#AE6E79"/>
<path d="M516.127 311.882L517.001 311.47L519.456 314.271L517.449 318.551L514.026 317.18L514.82 313.758L516.127 311.882Z" fill="#4C4981"/>
<path d="M504.493 562.575C504.493 562.575 502.283 562.315 501.402 565.758C500.521 569.201 499.192 578.751 499.192 578.751C499.192 578.751 498.665 584.576 497.603 585.904C496.542 587.232 495.487 595.526 502.991 596.58C510.494 597.634 513.766 592.545 513.766 592.545L513.498 569.396L504.493 562.575Z" fill="#444053"/>
<path d="M530.679 563.615C530.679 563.615 535.402 568.667 535.315 574.398C535.228 580.13 534.781 587.99 534.781 587.99C534.781 587.99 534.347 591.173 535.315 592.054C536.283 592.935 535.315 597.352 535.315 597.352C535.315 597.352 527.01 605.054 520.034 596.702C520.034 596.702 518.676 591.931 519.24 588.856C519.803 585.781 521.377 571.959 521.377 571.959L530.679 563.615Z" fill="#444053"/>
<path d="M542.378 458.064C542.378 458.064 537.612 471.388 535.575 474.478C533.539 477.567 532.138 483.139 532.138 483.139L530.282 494.522C529.919 497.067 529.712 499.632 529.66 502.202C529.747 504.765 525.067 542.097 525.067 542.097L517.651 551.546C517.651 551.546 514.387 558.165 514.914 560.929C515.441 563.694 514.56 568.082 513.469 569.403C513.469 569.403 513.296 578.065 513.029 579.992C512.762 581.92 514.004 587.413 513.029 588.38C512.054 589.347 499.077 588.914 498.723 587.319C498.369 585.724 500.312 578.051 500.312 578.051L501.46 570.638C501.46 570.638 503.756 566.581 503.229 565.253C502.702 563.925 504.197 560.843 504.283 560.576C504.37 560.308 506.761 555.985 506.32 554.31C505.879 552.636 509.1 517.021 509.1 517.021L518.192 453.206L542.378 458.064Z" fill="#AE6E79"/>
<path opacity="0.1" d="M542.378 458.064C542.378 458.064 541.656 460.07 540.666 462.705C539.092 466.862 536.824 472.586 535.575 474.478C533.546 477.567 532.13 483.139 532.13 483.139L530.274 494.53C529.916 497.075 529.711 499.64 529.66 502.21C529.66 503.22 528.982 509.666 528.115 517.093C526.779 528.448 525.067 542.104 525.067 542.104L517.651 551.553C517.651 551.553 517.275 552.275 516.806 553.415C515.874 555.581 514.56 559.096 514.914 560.908C515.441 563.643 514.56 568.054 513.469 569.382C513.469 569.382 513.289 578.043 513.029 579.971C512.769 581.898 514.004 587.384 513.029 588.358C512.054 589.333 499.077 588.892 498.723 587.304C498.369 585.716 500.312 578.036 500.312 578.036L501.46 570.616C501.46 570.616 503.756 566.559 503.222 565.231C502.687 563.903 504.197 560.821 504.283 560.554C504.37 560.287 506.761 555.963 506.32 554.289C505.981 553.011 507.764 532.1 508.595 522.182C508.876 519.064 509.057 517.036 509.057 517.036L516.878 462.135L517.514 457.71L518.149 453.22L542.378 458.064Z" fill="black"/>
<path d="M534.434 590.812C534.514 591.787 521.977 593.202 520.186 592.141C518.395 591.079 520.186 577.928 520.186 577.928L521.002 571.93C520.128 571.836 518.799 567.072 519.413 565.924C520.027 564.777 518.886 559.926 518.886 559.926L516.806 553.43L515.535 549.452C513.47 544.898 510.48 531.905 508.624 522.204C507.454 516.112 506.71 511.312 506.876 510.698C507.317 509.11 506.154 497.547 506.154 497.547C506.154 497.547 504.71 485.803 502.803 482.1C501.51 479.646 498.99 470.428 497.43 464.48C496.636 461.427 496.087 459.233 496.087 459.233C496.087 459.233 509.433 458.114 517.528 457.724C521.247 457.544 523.862 457.522 523.558 457.825C523.255 458.128 523.175 459.745 523.19 462.084C523.226 468.14 524.071 478.794 524.966 481.66C526.201 485.63 527.436 497.54 526.909 498.694C526.382 499.849 526.555 507.522 526.555 507.522C527.465 510.639 527.989 513.856 528.115 517.101C528.398 522.849 528.296 528.61 527.812 534.345C527.812 534.345 529.133 555.797 528.78 557.825C528.426 559.854 531.603 566.213 531.603 567.447C531.603 568.682 532.484 577.069 532.484 577.069C532.484 577.069 534.376 589.845 534.434 590.812Z" fill="#AE6E79"/>
<path d="M541.403 332.98L539.886 334.619L538.897 335.687L533.12 341.895L518.192 343.577L510.249 341.454L508.284 340.927C508.284 340.927 508.284 336.943 508.638 332.165C509.144 326.036 510.35 318.595 513.231 316.566C514.674 315.437 515.826 313.98 516.589 312.315C517.166 311.167 517.649 309.974 518.034 308.749C518.091 308.59 518.135 308.439 518.185 308.28C518.835 306.141 519.304 303.951 519.586 301.733C519.586 301.733 521.493 300.679 524.143 299.452C531.054 296.226 542.992 291.772 538.839 301.733C538.229 303.192 537.708 304.686 537.279 306.208C537.214 306.432 537.157 306.656 537.106 306.872C535.719 312.416 536.637 315.779 537.669 317.635C537.844 317.956 538.044 318.262 538.269 318.551C538.551 318.939 538.889 319.282 539.273 319.569L540.991 330.476L541.136 331.378L541.403 332.98Z" fill="#AE6E79"/>
<path opacity="0.1" d="M538.847 302.267C538.059 304.158 539.229 300.722 538.847 302.267C535.698 304.505 528.281 310.878 524.114 310.878C521.298 310.878 520.453 310.366 518.041 309.276C518.771 306.992 519.291 304.646 519.594 302.267C519.594 302.267 544.588 288.495 538.847 302.267Z" fill="black"/>
<path d="M545.209 290.667C545.205 295.421 543.442 300.005 540.26 303.538C537.077 307.071 532.7 309.302 527.971 309.803C527.306 309.868 526.635 309.911 525.956 309.911C522.148 309.911 518.426 308.782 515.259 306.668C512.093 304.553 509.626 301.548 508.168 298.032C506.711 294.515 506.33 290.646 507.073 286.913C507.816 283.18 509.649 279.752 512.342 277.06C515.034 274.369 518.465 272.536 522.2 271.794C525.934 271.051 529.806 271.432 533.324 272.889C536.842 274.345 539.849 276.812 541.964 279.976C544.08 283.141 545.209 286.861 545.209 290.667Z" fill="#AE6E79"/>
<path opacity="0.1" d="M547.946 375.972L545.202 383.125C545.202 383.125 542.97 383.219 539.489 383.327C527.74 383.702 501.85 384.179 500.694 381.161C500.435 380.396 500.299 379.595 500.29 378.787C500.138 374.189 502.283 367.129 502.283 367.129C502.283 367.129 503.518 353.003 503.518 352.39C503.518 351.776 502.456 341.88 502.456 341.88L504.58 333.94L510.494 329.79C510.494 329.79 513.145 333.854 514.733 334.2C516.322 334.547 518.445 336.503 518.445 336.503C518.445 336.503 523.652 339.679 525.335 337.91C527.017 336.142 540.081 328.375 540.081 328.375L546.971 335.969L547.946 375.972Z" fill="black"/>
<path d="M547.946 377.069L545.202 384.215C545.202 384.215 542.97 384.316 539.489 384.424H539.15C537.648 384.475 535.929 384.525 534.095 384.561C524.757 384.778 511.895 384.835 505.172 383.839C502.644 383.478 500.99 382.959 500.716 382.251C500.564 381.826 500.457 381.386 500.398 380.938C500.355 380.606 500.326 380.216 500.312 379.877C500.16 375.279 502.305 368.219 502.305 368.219C502.305 368.219 503.54 354.093 503.54 353.48C503.54 352.866 502.478 342.97 502.478 342.97L504.601 335.03L508.667 332.186L510.516 330.887C511.138 331.817 511.815 332.709 512.545 333.558C513.115 334.323 513.878 334.923 514.755 335.297C516.351 335.651 518.467 337.6 518.467 337.6C518.467 337.6 523.674 340.776 525.356 339.007C526.635 337.658 534.579 332.8 538.247 330.584C539.374 329.898 540.103 329.472 540.103 329.472L541.028 330.497L546.993 337.066L547.946 377.069Z" fill="white"/>
<path opacity="0.1" d="M454.685 303.588L446.994 308.973C446.994 308.973 446.929 307.897 446.734 306.425C450.532 304.822 452.843 301.278 453.508 300.145C454.215 302.065 454.685 303.588 454.685 303.588Z" fill="black"/>
<path d="M481.708 321.864L480.033 321.417C480.033 321.417 477.289 324.304 475.7 324.687C474.111 325.069 470.76 327.242 470.76 327.242L466.868 330.331C466.868 330.331 463.979 330.779 464.839 328.743C465.698 326.708 463.25 324.152 463.25 324.152C463.25 324.152 458.303 314.004 458.303 311.882C458.303 309.759 454.215 300.852 454.215 300.852C454.215 300.852 449.088 310.828 439.729 307.652C439.729 307.652 446.532 322.918 446.705 326.715C446.878 330.512 451.385 341.101 451.385 341.101C451.385 341.101 453.067 348.961 462.159 348.521C462.159 348.521 474.703 350.852 477.44 348.521C480.177 346.189 482.647 344.356 483.94 344.089C485.233 343.822 486.41 342.328 486.41 342.328V331.833L481.708 321.864Z" fill="#4C4981"/>
<path opacity="0.1" d="M465.987 331.833C465.987 331.833 468.197 340.047 466.781 340.927L465.987 331.833Z" fill="black"/>
<path opacity="0.1" d="M539.489 384.388C527.74 384.763 501.85 385.232 500.694 382.222C500.435 381.457 500.299 380.656 500.29 379.848L538.673 381.869L539.489 384.388Z" fill="black"/>
<path opacity="0.1" d="M542.378 458.064C542.378 458.064 541.656 460.07 540.666 462.705C535.792 462.409 529.336 462.098 523.204 462.055C521.038 462.055 518.915 462.055 516.907 462.127C512.646 462.257 508.963 462.604 506.616 463.268C503.649 464.181 500.547 464.581 497.445 464.452C496.65 461.398 496.101 459.204 496.101 459.204C496.101 459.204 509.447 458.085 517.543 457.695L518.178 453.206L542.378 458.064Z" fill="black"/>
<path d="M552.712 425.755L551.21 428.931C551.21 428.931 551.001 429.877 550.733 431.378C550.17 434.612 549.289 440.444 549.621 445.093C550.062 451.892 548.646 462.214 548.646 462.214C548.646 462.214 516.149 459.478 506.616 462.214C497.083 464.95 492.389 462.214 492.389 462.214C492.389 462.214 493.545 451.979 490.714 446.681C488.786 443.071 487.428 426.961 487.385 416.364C487.385 411.478 487.63 407.775 488.244 407.024C490.187 404.642 498.484 380.808 498.484 380.808L500.377 380.909L505.432 381.176L534.174 382.692L538.688 382.93L539.164 384.374L552.712 425.755Z" fill="#444053"/>
<path d="M567.018 415.159L567.286 417.988C567.286 417.988 553.052 413.354 553.774 407.659C554.496 401.964 553.774 402.606 553.774 402.606L565.213 403.574L567.018 415.159Z" fill="#4C4981"/>
<path opacity="0.1" d="M567.018 415.159L567.286 417.988C567.286 417.988 553.052 413.354 553.774 407.659C554.496 401.964 553.774 402.606 553.774 402.606L565.213 403.574L567.018 415.159Z" fill="black"/>
<path opacity="0.1" d="M475.483 334.114C476.937 335.348 478.65 336.238 480.495 336.719C479.961 336.603 479.464 336.355 479.051 335.997C478.033 335.276 477.065 334.489 476.083 333.724C475.288 333.103 474.299 332.071 473.324 331.818C473.962 332.656 474.686 333.425 475.483 334.114Z" fill="black"/>
<path opacity="0.1" d="M475.7 337.831C476.158 338.348 476.528 338.935 476.798 339.57C477.253 341.367 477.226 343.252 476.718 345.035L474.436 339.534C474.039 338.596 473.642 337.658 473.165 336.763C472.956 336.38 471.641 334.785 471.793 334.453C472.198 333.514 475.274 337.304 475.7 337.831Z" fill="black"/>
<path opacity="0.1" d="M539.374 368.291C540.93 368.103 542.384 367.423 543.526 366.35C541.179 366.646 538.955 367.57 536.644 368.053C534.498 368.551 532.249 368.344 530.231 367.461C532.889 368.761 536.543 368.804 539.374 368.291Z" fill="black"/>
<path opacity="0.1" d="M532.737 352.13C532.316 352.193 531.888 352.086 531.545 351.834C529.783 350.824 528.045 349.77 526.331 348.673C524.663 347.597 522.648 346.507 521.226 345.15C524.728 348.312 527.992 350.982 532.737 352.13Z" fill="black"/>
<path opacity="0.1" d="M537.633 370.854C538.559 370.896 539.486 370.821 540.392 370.63C541.309 370.439 542.119 369.908 542.66 369.143C542.332 369.068 541.988 369.122 541.699 369.295C538.901 370.472 535.828 370.839 532.831 370.356C534.268 370.969 536.109 370.847 537.633 370.854Z" fill="black"/>
<path opacity="0.1" d="M520.908 411.838C519.069 412.393 517.18 412.763 515.268 412.943C513.78 413.012 512.289 412.983 510.805 412.856L503.583 412.402L499.972 412.171C499.546 412.171 497.806 412.171 498.665 411.312C499.098 410.893 501.51 411.16 502.131 411.138C503.33 411.1 504.534 411.078 505.742 411.073C508.133 411.073 510.53 411.073 512.921 411.218C515.6 411.348 518.236 411.55 520.908 411.838Z" fill="black"/>
<path opacity="0.1" d="M512.538 415.412C511.31 415.361 509.729 416.09 508.465 416.249C507.051 416.416 505.626 416.471 504.204 416.415C501.389 416.347 498.609 415.78 495.993 414.74C501.503 415.022 507.028 415.188 512.538 415.412Z" fill="black"/>
<path opacity="0.1" d="M497.069 419.194C497.603 419.302 498.129 419.446 498.643 419.627C501.691 420.493 504.933 419.728 508.032 418.963C507.259 420.125 505.865 420.623 504.471 420.941C502.204 421.515 499.841 421.601 497.538 421.193C496.816 421.049 495.004 420.789 494.65 420.038C494.058 418.934 496.39 419.085 497.069 419.194Z" fill="black"/>
<path opacity="0.1" d="M514.156 424.889C515.069 425.076 515.971 425.317 516.856 425.611C520.287 426.463 523.847 425.293 527.292 424.506C531.433 423.566 535.679 423.173 539.923 423.337C539.164 423.337 537.958 424.001 537.214 424.225C536.239 424.521 535.25 424.795 534.261 425.041C532.318 425.517 530.347 425.907 528.361 426.188C524.351 426.768 520.294 426.944 516.25 426.715C514.401 426.614 511.195 426.802 509.613 425.871C510.98 425.059 512.575 424.714 514.156 424.889Z" fill="black"/>
<path opacity="0.1" d="M515.448 316.025C515.448 316.025 515.622 324.152 514.3 327.863C513.881 329.018 513.231 331.147 512.524 333.536C511.751 336.185 510.906 339.152 510.256 341.476C509.606 343.8 509.173 345.359 509.173 345.359C509.173 345.359 506.19 369.641 505.417 381.212C505.417 381.414 505.417 381.623 505.374 381.818C505.331 382.468 505.259 383.146 505.15 383.847C503.431 395.338 493.516 413.058 490.187 414.473C489.149 414.949 488.201 415.601 487.385 416.4C487.385 411.514 487.63 407.811 488.244 407.06C490.187 404.678 498.485 380.844 498.485 380.844L500.377 380.945C500.333 380.613 500.304 380.223 500.29 379.884C500.138 375.286 502.283 368.226 502.283 368.226C502.283 368.226 503.518 354.101 503.518 353.487C503.518 352.874 502.456 342.977 502.456 342.977L504.58 335.037L508.645 332.193C509.151 326.065 510.357 318.623 513.238 316.595C514.681 315.466 515.833 314.008 516.597 312.344C517.167 312.423 516.127 311.918 516.127 311.918L515.448 316.025Z" fill="black"/>
<path d="M517.001 311.47C516.265 311.219 515.482 311.133 514.709 311.221C513.936 311.308 513.192 311.566 512.531 311.975C510.494 313.419 506.522 313.296 505.461 313.037C504.399 312.777 493.364 311.355 492.462 311.708C491.559 312.062 489.811 310.474 488.663 312.596C487.515 314.718 486.988 315.859 485.839 316.386C484.691 316.913 482.655 318.595 482.951 318.948C483.247 319.302 480.062 321.417 480.062 321.417L486.504 342.349C486.504 342.349 482.351 368.826 480.322 371.121C478.293 373.416 460.275 403.162 466.723 408.46C471.829 412.473 477.232 416.093 482.886 419.288C483.608 419.641 486.15 414.877 489.681 413.376C493.213 411.875 504.168 392.01 504.847 380.714C505.526 369.417 508.645 344.262 508.645 344.262C508.645 344.262 512.444 330.49 513.766 326.78C515.087 323.07 514.914 314.942 514.914 314.942L517.001 311.47Z" fill="#4C4981"/>
<path opacity="0.1" d="M552.712 425.755L551.21 428.931C551.21 428.931 551.001 429.877 550.733 431.378C550.466 431.344 550.214 431.231 550.011 431.053C547.801 429.285 534.846 415.96 534.203 404.13C533.748 395.403 533.965 387.881 534.109 384.532C534.152 383.478 534.196 382.843 534.196 382.706C534.196 382.706 544.263 370.522 543.114 366.205C541.966 361.889 539.316 338.776 539.316 338.776L538.926 335.745L538.254 330.62L536.651 318.219L538.312 318.609C538.594 318.996 538.933 319.339 539.316 319.627L541.035 330.533L547 337.102L547.975 377.09L545.23 384.236C545.23 384.236 542.999 384.337 539.518 384.446H539.179L552.712 425.755Z" fill="black"/>
<path d="M558.273 359.745C558.273 359.745 555.803 358.771 555.63 359.745C555.456 360.72 555.009 362.827 555.009 362.827C555.009 362.827 555.449 367.952 553.564 369.98C551.679 372.009 551.398 380.57 551.398 380.57C551.398 380.57 548.422 389.044 549.831 391.693C550.343 392.653 551.138 397.467 551.932 403.242C552.438 406.851 552.936 410.814 553.377 414.437C554.178 421.02 554.778 426.47 554.778 426.47C554.778 426.47 553.182 432.295 550.972 430.526C548.762 428.758 535.806 415.433 535.171 403.603C534.737 395.295 534.911 388.076 535.055 384.518C535.113 383.009 535.171 382.158 535.171 382.158C535.171 382.158 545.238 369.973 544.089 365.65C542.941 361.326 540.291 338.221 540.291 338.221L539.829 334.648L539.33 330.808L539.215 329.963L537.619 317.692C537.9 317.757 547.809 319.995 549.116 321.301C550.423 322.608 558.504 324.477 558.504 324.477C559.723 324.808 560.831 325.459 561.712 326.363C562.593 327.267 563.216 328.39 563.516 329.617C563.595 329.862 563.653 330.122 563.711 330.389C564.772 335.514 564.433 336.127 565.155 337.015C565.877 337.903 558.273 359.745 558.273 359.745Z" fill="#4C4981"/>
<path opacity="0.1" d="M553.434 414.43C549.824 413.708 544.465 412.041 544.588 408.359C544.696 404.916 548.841 403.675 551.983 403.234C552.488 406.829 552.987 410.806 553.434 414.43Z" fill="black"/>
<path d="M564.635 412.596C564.491 412.907 563.913 413.174 563.09 413.412C561.158 413.872 559.196 414.192 557.218 414.372C557.218 414.372 544.942 413.398 545.115 407.832C545.245 403.841 550.791 402.78 553.904 402.542C554.593 402.477 555.284 402.448 555.976 402.455C555.976 402.455 565.162 411.456 564.635 412.596Z" fill="#AE6E79"/>
<path opacity="0.1" d="M564.635 412.596C564.491 412.907 563.913 413.174 563.09 413.412C559.89 409.132 555.427 403.639 553.239 403.155L553.904 402.542C554.593 402.477 555.284 402.448 555.976 402.455C555.976 402.455 565.162 411.456 564.635 412.596Z" fill="black"/>
<path d="M561.544 336.423L565.155 336.957C566.459 339.253 567.906 341.464 569.488 343.577C570.458 344.782 571.015 346.268 571.077 347.814C571.077 347.814 576.378 355.667 578.053 356.548C579.728 357.428 582.292 363.434 582.292 363.434C582.292 363.434 586.445 366.169 586.445 369.259C586.518 371.835 586.784 374.402 587.239 376.939C587.333 377.379 586.625 382.858 584.856 385.601C583.087 388.343 581.317 394.392 581.411 395.475C581.505 396.558 576.464 402.188 575.056 403.949C573.881 405.596 572.847 407.339 571.965 409.161L567.285 417.988C567.285 417.988 557.392 403.422 553.774 402.628C553.774 402.628 557.832 398.745 559.862 398.037C561.891 397.33 563.841 391.541 563.927 390.184C564.014 388.827 565.783 384.446 567.632 383.688C569.481 382.93 570.463 382.1 569.669 380.858C568.874 379.617 569.669 377.249 569.669 377.249C569.669 377.249 564.455 370.363 563.747 366.422C563.039 362.481 558.273 359.803 558.273 359.803L555.536 353.09L561.544 336.423Z" fill="#4C4981"/>
<path opacity="0.1" d="M574.681 369.374C576.679 367.688 579.194 366.735 581.808 366.675C580.133 366.963 578.371 367.331 577.143 368.501C576.661 369.007 576.228 369.558 575.85 370.147C575.432 370.746 572.023 375.077 571.518 374.391C570.673 373.387 573.995 369.959 574.681 369.374Z" fill="black"/>
<path opacity="0.1" d="M566.679 365.195C567.22 365.148 567.738 364.958 568.181 364.645C568.624 364.332 568.976 363.906 569.199 363.412C569.63 362.417 569.896 361.359 569.986 360.279C570.245 358.472 570.609 356.681 571.077 354.916C571.217 354.567 571.277 354.191 571.25 353.816C571.224 353.441 571.113 353.077 570.925 352.751C570.732 352.187 570.47 351.649 570.145 351.148C569.495 351.87 569.308 353.552 569.04 354.519C568.708 355.717 568.405 356.923 568.116 358.128C567.964 358.706 566.766 365.195 566.679 365.195Z" fill="black"/>
<path opacity="0.1" d="M563.552 329.559C563.196 330.024 562.786 330.446 562.331 330.815C560.887 331.963 558.973 332.93 558.793 334.741C558.843 335.33 558.769 335.923 558.576 336.481C558.114 337.275 556.98 337.203 556.077 337.051C555.316 336.983 554.586 336.714 553.961 336.272C553.015 335.463 552.929 334.02 552.207 333.002C551.768 332.477 551.214 332.059 550.588 331.783C549.961 331.506 549.28 331.377 548.596 331.407C547.245 331.363 545.902 331.667 544.552 331.724C543.684 331.768 542.814 331.71 541.959 331.551C541.677 331.508 541.397 331.45 541.121 331.378C540.518 331.229 539.928 331.029 539.359 330.779C539.065 330.662 538.778 330.527 538.5 330.375C537.596 329.911 536.758 329.328 536.008 328.642C534.687 327.43 533.589 325.755 533.697 323.958C533.762 322.853 534.261 321.835 534.42 320.746C534.961 317.627 532.889 314.682 530.643 312.452C529.747 311.564 528.794 310.705 527.898 309.803C526.504 308.517 525.403 306.947 524.67 305.198C524.068 303.336 523.871 301.367 524.093 299.423C524.296 297.452 524.351 295.469 524.259 293.49C523.594 286.474 517.6 281.096 511.606 278.173L511.339 278.036C513.117 275.996 515.306 274.354 517.762 273.217C520.218 272.081 522.887 271.474 525.593 271.438C528.3 271.402 530.984 271.938 533.469 273.009C535.955 274.08 538.186 275.663 540.018 277.655C541.85 279.647 543.241 282.002 544.1 284.568C544.959 287.133 545.267 289.851 545.004 292.544C544.741 295.236 543.912 297.843 542.572 300.194C541.233 302.545 539.412 304.587 537.229 306.187C537.164 306.41 537.106 306.634 537.056 306.851C535.669 312.394 536.586 315.758 537.619 317.613C537.9 317.678 547.809 319.915 549.116 321.222C550.423 322.528 558.504 324.398 558.504 324.398C559.732 324.725 560.849 325.377 561.738 326.285C562.626 327.193 563.253 328.324 563.552 329.559Z" fill="black"/>
<path d="M510.068 272.947C510.465 272.492 511.065 272.261 511.469 271.821C512.718 270.464 511.469 268.248 511.924 266.458C512.415 264.473 514.856 263.607 516.893 263.816C518.929 264.025 520.836 264.964 522.872 265.195C526.035 265.548 529.097 264.177 532.181 263.376C535.265 262.574 538.991 262.531 541.114 264.892C543.237 267.252 543.093 271.272 545.736 272.983C546.956 273.77 548.495 273.856 549.816 274.427C551.263 275.169 552.462 276.315 553.268 277.725C555.36 281.009 556.282 284.904 555.883 288.776C555.659 290.87 555.052 292.905 554.806 294.998C554.557 297.172 554.704 299.373 555.24 301.495C555.796 303.66 557.002 305.999 559.161 306.692C559.66 306.802 560.145 306.969 560.605 307.19C561.855 307.969 561.689 309.803 561.371 311.232L560.086 317.158C561.32 318.096 563.241 317.692 564.419 318.681C564.89 319.112 565.239 319.66 565.43 320.269C566.01 321.926 566.073 323.721 565.61 325.415C565.147 327.109 564.18 328.622 562.837 329.754C561.393 330.901 559.479 331.869 559.298 333.673C559.353 334.262 559.279 334.856 559.082 335.413C558.627 336.207 557.486 336.135 556.583 335.983C555.824 335.913 555.096 335.644 554.474 335.203C553.521 334.395 553.442 332.951 552.719 331.934C552.28 331.409 551.726 330.993 551.1 330.716C550.474 330.439 549.792 330.31 549.109 330.338C547.751 330.295 546.415 330.598 545.057 330.663C541.926 330.792 538.869 329.688 536.543 327.588C535.214 326.368 534.124 324.701 534.225 322.897C534.29 321.799 534.788 320.774 534.947 319.684C535.481 316.573 533.416 313.621 531.17 311.391C528.924 309.16 526.288 307.103 525.19 304.137C523.818 300.463 525.147 296.363 524.779 292.465C524.114 285.442 518.127 280.071 512.126 277.141C510.79 276.455 508.515 274.715 510.068 272.947Z" fill="#444053"/>
<path opacity="0.1" d="M557.298 333.565C556.345 332.749 556.265 331.313 555.543 330.295C555.104 329.77 554.55 329.353 553.924 329.075C553.298 328.797 552.617 328.667 551.932 328.693C550.575 328.649 549.231 328.953 547.881 329.018C544.738 329.155 541.668 328.048 539.338 325.935C538.009 324.723 536.926 323.048 537.027 321.251C537.092 320.146 537.59 319.121 537.749 318.039C538.29 314.92 536.218 311.968 533.972 309.738C531.726 307.507 529.097 305.45 527.992 302.484C526.627 298.817 527.992 294.717 527.588 290.812C526.916 283.789 520.93 278.418 514.936 275.488C513.535 274.802 511.26 273.062 512.812 271.294C513.202 270.839 513.802 270.608 514.206 270.168C515.455 268.818 514.206 266.595 514.668 264.812C514.757 264.457 514.911 264.122 515.123 263.823C513.614 264.105 512.235 264.956 511.866 266.4C511.426 268.19 512.661 270.406 511.411 271.763C511.007 272.204 510.408 272.435 510.01 272.882C508.458 274.65 510.733 276.397 512.134 277.076C518.135 280.006 524.121 285.384 524.786 292.4C525.154 296.305 523.825 300.405 525.198 304.079C526.295 307.038 528.931 309.132 531.177 311.333C533.423 313.535 535.51 316.508 534.954 319.627C534.65 320.682 534.409 321.755 534.232 322.839C534.131 324.636 535.221 326.311 536.55 327.523C538.877 329.637 541.945 330.745 545.086 330.606C546.444 330.541 547.78 330.245 549.137 330.281C549.822 330.255 550.503 330.386 551.129 330.664C551.754 330.942 552.308 331.359 552.748 331.883C553.47 332.901 553.55 334.345 554.503 335.153C555.126 335.591 555.853 335.858 556.612 335.925C557.515 336.091 558.656 336.149 559.111 335.362C559.273 335.041 559.343 334.681 559.313 334.323C558.586 334.252 557.891 333.99 557.298 333.565Z" fill="black"/>
<path d="M452.172 290.668H402.219V241.469H452.208L452.172 290.668ZM451.45 216.487H402.942C402.942 140.032 475.65 144.5 475.65 96.1313C475.65 69.4891 453.833 48.145 427.178 48.145C400.522 48.145 378.713 71.1565 378.713 96.8892H330.241C330.219 84.1594 332.711 71.5504 337.575 59.7854C342.439 48.0204 349.578 37.3308 358.584 28.3294C367.59 19.3281 378.285 12.1921 390.056 7.33071C401.826 2.46932 414.441 -0.0218631 427.178 5.40659e-06C480.719 5.40659e-06 524.114 42.6953 524.114 96.1313C524.114 156.612 451.413 163.498 451.413 216.487H451.45Z" fill="#D200B5"/>
<path opacity="0.1" d="M203.031 276.015H190.147V263.296H203.031V276.015ZM202.836 256.887H190.342C190.342 237.181 209.082 238.329 209.082 225.849C209.076 224.216 208.747 222.6 208.116 221.094C207.484 219.588 206.562 218.221 205.402 217.072C204.242 215.922 202.866 215.012 201.354 214.394C199.842 213.776 198.223 213.462 196.589 213.469C193.29 213.546 190.148 214.896 187.824 217.238C185.5 219.58 184.174 222.731 184.124 226.029H171.631C171.714 219.475 174.37 213.217 179.027 208.603C183.684 203.989 189.968 201.389 196.526 201.363C203.083 201.337 209.387 203.889 214.08 208.466C218.773 213.044 221.478 219.281 221.612 225.834C221.576 241.425 202.836 243.201 202.836 256.858V256.887Z" fill="#D200B5"/>
<path opacity="0.1" d="M300.581 364.372H287.698V351.69H300.581V364.372ZM300.393 345.251H287.9C287.9 325.538 306.64 326.693 306.64 314.213C306.634 312.581 306.305 310.965 305.673 309.46C305.042 307.954 304.119 306.588 302.959 305.439C301.799 304.29 300.423 303.381 298.911 302.763C297.399 302.146 295.78 301.833 294.147 301.841C290.834 301.901 287.674 303.246 285.335 305.593C282.997 307.94 281.663 311.104 281.617 314.415H269.124C269.206 307.862 271.863 301.603 276.52 296.989C281.177 292.375 287.461 289.775 294.018 289.749C300.576 289.724 306.88 292.275 311.573 296.852C316.266 301.43 318.971 307.668 319.105 314.22C319.126 329.812 300.393 331.594 300.393 345.251Z" fill="#D200B5"/>
<path opacity="0.1" d="M359.9 207.955H350.562V198.781H359.9V207.955ZM359.763 194.089H350.707C350.707 179.811 364.291 180.641 364.291 171.604C364.285 170.421 364.047 169.251 363.588 168.16C363.13 167.069 362.462 166.08 361.621 165.247C360.78 164.415 359.783 163.756 358.687 163.308C357.592 162.861 356.419 162.634 355.235 162.639C352.838 162.688 350.554 163.665 348.865 165.364C347.175 167.064 346.212 169.353 346.179 171.749H337.123C337.104 166.947 338.994 162.335 342.377 158.927C345.76 155.518 350.359 153.592 355.163 153.573C359.966 153.554 364.581 155.443 367.991 158.825C371.401 162.206 373.328 166.803 373.347 171.604C373.333 182.901 359.763 184.193 359.763 194.089Z" fill="#D200B5"/>
<path opacity="0.1" d="M519.384 220.904H514.105V215.707H519.384V220.904ZM519.305 213.072H514.156C514.156 205.003 521.832 205.472 521.832 200.361C521.832 199.693 521.7 199.031 521.442 198.414C521.184 197.797 520.807 197.238 520.331 196.768C519.856 196.298 519.292 195.927 518.672 195.676C518.052 195.426 517.388 195.301 516.719 195.309C515.365 195.336 514.075 195.889 513.12 196.849C512.164 197.808 511.619 199.101 511.599 200.455H506.479C506.539 197.788 507.638 195.249 509.543 193.38C511.448 191.511 514.008 190.459 516.677 190.449C519.346 190.439 521.914 191.471 523.834 193.325C525.753 195.179 526.872 197.709 526.952 200.376C526.981 206.72 519.305 207.478 519.305 213.072Z" fill="#D200B5"/>
<path opacity="0.1" d="M600.094 457.277H594.815V452.08H600.094V457.277ZM600.014 449.445H594.894C594.894 441.368 602.578 441.844 602.578 436.734C602.568 435.386 602.024 434.096 601.064 433.149C600.104 432.201 598.807 431.674 597.458 431.681C596.103 431.707 594.811 432.259 593.856 433.219C592.9 434.179 592.356 435.474 592.337 436.828H587.217C587.277 434.16 588.377 431.622 590.281 429.753C592.186 427.884 594.746 426.832 597.415 426.822C600.085 426.811 602.653 427.843 604.572 429.697C606.491 431.552 607.61 434.082 607.691 436.748C607.72 443.122 600.043 443.851 600.043 449.445H600.014Z" fill="#D200B5"/>
</g>
<defs>
<linearGradient id="paint0_linear" x1="503.496" y1="600.586" x2="503.496" y2="262.235" gradientUnits="userSpaceOnUse">
<stop stop-color="#808080" stop-opacity="0.25"/>
<stop offset="0.54" stop-color="#808080" stop-opacity="0.12"/>
<stop offset="1" stop-color="#808080" stop-opacity="0.1"/>
</linearGradient>
<clipPath id="clip0">
<rect width="725" height="604" fill="white"/>
</clipPath>
</defs>
</svg>
<svg width="725" height="604" viewBox="0 0 725 604" fill="none" xmlns="http://www.w3.org/2000/svg">
<g clip-path="url(#clip0)">
<path opacity="0.1" d="M515.268 603.993C556.173 603.993 589.333 600.725 589.333 596.695C589.333 592.665 556.173 589.398 515.268 589.398C474.362 589.398 441.202 592.665 441.202 596.695C441.202 600.725 474.362 603.993 515.268 603.993Z" fill="#D200B5"/>
<path opacity="0.1" d="M317.415 8.83501C350.035 -3.28426 389.747 7.13875 423.661 22.3402C530.173 70.0954 607.77 160.748 669.422 253.104C691.744 286.546 712.947 321.46 721.339 358.792C738.425 434.778 693.86 513.441 618.068 541.007C592.294 550.391 563.978 554.238 535.618 556.382C485.189 560.2 432.977 558.684 382.952 544.544C347.277 534.439 313.53 518.183 281.162 500.225C190.768 450.044 108.217 384.879 48.7753 305.277C22.705 270.363 0.649959 231.002 0.0144503 190.718C-0.621059 150.433 25.6442 109.954 68.8588 103.104C86.7253 100.274 105.624 103.219 124.061 106.251C151.208 110.719 178.722 115.418 205.558 113.469C233.282 111.441 269.34 100.614 274.395 74.1592C279.747 45.7558 284.838 20.9398 317.415 8.83501Z" fill="#D200B5"/>
<path d="M176.224 554.938C176.224 554.938 211.076 552.838 206.966 577.25C206.966 577.25 207.782 581.58 203.868 583.522C203.868 583.522 203.811 581.71 200.294 582.324C199.044 582.538 197.774 582.601 196.509 582.512C194.799 582.393 193.175 581.722 191.88 580.599C191.88 580.599 182.08 576.557 178.275 560.547C178.275 560.547 175.451 557.06 175.567 556.158L181.445 558.67C181.445 558.67 179.437 562.914 181.019 566.437C181.019 566.437 181.207 558.829 182.34 559.002C182.564 559.038 185.395 560.446 185.395 560.446C185.395 560.446 181.936 567.83 184.543 573.2C184.543 573.2 183.554 564.098 186.471 560.98L190.616 563.398C190.616 563.398 186.572 571.027 189.317 577.25C189.317 577.25 188.594 567.7 191.483 563.983L195.238 566.87C195.238 566.87 191.44 574.391 193.758 579.559C193.758 579.559 194.054 568.436 196.047 567.599C196.047 567.599 199.333 570.486 199.831 571.684C199.831 571.684 197.232 577.141 198.842 580.021C198.842 580.021 199.831 572.615 200.647 572.579C200.647 572.579 203.912 577.488 204.258 580.851C204.258 580.851 204.114 575.849 201.435 572.11C201.435 572.11 204.598 572.652 206.446 574.701C206.446 574.701 205.934 571.23 200.633 570.926C200.633 570.926 197.932 567.209 197.203 566.978C197.203 566.978 202.482 566.538 205.681 567.96C205.681 567.96 202.864 564.683 196.235 566.17L192.53 563.152C192.53 563.152 199.485 562.2 202.424 563.254C202.424 563.254 199.037 560.366 191.534 562.467L187.504 560.056C187.504 560.056 193.426 558.778 196.957 559.24C196.957 559.24 193.231 557.234 186.32 559.406L183.431 558.114C183.431 558.114 187.764 557.262 189.042 557.125C190.32 556.988 190.378 556.642 190.378 556.642C187.629 556.181 184.806 556.494 182.225 557.544C182.225 557.544 176.115 555.357 176.224 554.938Z" fill="#D200B5"/>
<path opacity="0.1" d="M200.229 589.816C213.853 589.816 224.898 587.952 224.898 585.651C224.898 583.351 213.853 581.487 200.229 581.487C186.604 581.487 175.559 583.351 175.559 585.651C175.559 587.952 186.604 589.816 200.229 589.816Z" fill="#D200B5"/>
<path d="M129.535 538.517C129.535 538.517 149.186 537.333 146.868 551.098C146.99 551.796 146.887 552.515 146.575 553.15C146.262 553.786 145.755 554.306 145.127 554.635C145.127 554.635 145.091 553.617 143.112 553.964C142.409 554.084 141.693 554.118 140.982 554.065C140.015 554.005 139.096 553.627 138.368 552.989C138.368 552.989 132.85 550.701 130.684 541.678C130.684 541.678 129.095 539.708 129.153 539.203L132.475 540.646C132.475 540.646 131.341 543.043 132.229 545.028C132.229 545.028 132.337 540.733 132.951 540.834C133.081 540.834 134.677 541.664 134.677 541.664C134.677 541.664 132.727 545.829 134.201 548.882C134.201 548.882 133.637 543.75 135.284 541.989L137.617 543.353C137.617 543.353 135.342 547.684 136.894 551.163C136.894 551.163 136.497 545.778 138.115 543.685L140.231 545.331C140.231 545.331 138.064 549.568 139.4 552.484C139.4 552.484 139.566 546.211 140.693 545.742C140.693 545.742 142.542 547.374 142.823 548.045C142.823 548.045 141.379 551.12 142.267 552.744C142.267 552.744 142.823 548.572 143.286 548.55C143.286 548.55 145.127 551.315 145.315 553.213C145.223 551.46 144.675 549.761 143.726 548.283C144.789 548.477 145.77 548.979 146.55 549.727C146.55 549.727 146.268 547.771 143.271 547.597C143.271 547.597 141.747 545.497 141.343 545.374C141.343 545.374 144.318 545.122 146.124 545.923C146.124 545.923 144.535 544.075 140.794 544.912L138.707 543.209C138.707 543.209 142.628 542.675 144.289 543.266C144.289 543.266 142.376 541.635 138.144 542.826L135.876 541.462C137.623 541.08 139.412 540.928 141.198 541.007C141.198 541.007 139.104 539.874 135.205 541.101L133.58 540.379C133.58 540.379 136.028 539.896 136.743 539.823C137.458 539.751 137.501 539.549 137.501 539.549C135.95 539.292 134.357 539.469 132.901 540.062C132.901 540.062 129.478 538.755 129.535 538.517Z" fill="#D200B5"/>
<path opacity="0.1" d="M143.069 558.179C150.751 558.179 156.978 557.126 156.978 555.826C156.978 554.527 150.751 553.473 143.069 553.473C135.387 553.473 129.16 554.527 129.16 555.826C129.16 557.126 135.387 558.179 143.069 558.179Z" fill="#D200B5"/>
<path d="M612.963 551.748C612.963 551.748 636.686 550.304 633.906 566.906C634.048 567.749 633.921 568.616 633.542 569.383C633.164 570.15 632.553 570.778 631.797 571.179C631.797 571.179 631.754 569.945 629.363 570.363C628.512 570.508 627.646 570.549 626.785 570.486C625.621 570.411 624.515 569.954 623.636 569.187C623.636 569.187 616.964 566.437 614.371 555.537C614.371 555.537 612.45 553.163 612.529 552.556L616.53 554.26C616.53 554.26 615.165 557.147 616.241 559.551C616.241 559.551 616.371 554.368 617.137 554.498C617.296 554.498 619.217 555.494 619.217 555.494C619.217 555.494 616.862 560.547 618.639 564.156C618.639 564.156 617.967 557.963 619.953 555.841L622.77 557.479C622.77 557.479 620.018 562.676 621.889 566.913C621.889 566.913 621.405 560.417 623.333 557.883L625.89 559.875C625.89 559.875 623.304 564.993 624.879 568.537C624.879 568.537 625.088 560.973 626.446 560.395C626.446 560.395 628.677 562.366 629.017 563.174C629.017 563.174 627.247 566.892 628.345 568.855C628.345 568.855 629.017 563.802 629.573 563.802C629.573 563.802 631.797 567.144 632.028 569.432C631.92 567.317 631.261 565.266 630.114 563.485C631.398 563.727 632.582 564.34 633.523 565.246C633.523 565.246 633.176 562.885 629.558 562.676C629.558 562.676 627.724 560.143 627.233 559.991C627.233 559.991 630.844 559.688 633.01 560.655C633.01 560.655 631.089 558.432 626.576 559.442L624.055 557.385C624.055 557.385 628.785 556.736 630.793 557.45C630.793 557.45 628.482 555.48 623.376 556.916L620.632 555.278C620.632 555.278 624.662 554.411 627.067 554.722C627.067 554.722 624.532 553.358 619.845 554.837L617.881 553.957C617.881 553.957 620.834 553.372 621.701 553.285C622.568 553.199 622.611 552.953 622.611 552.953C620.741 552.641 618.821 552.854 617.065 553.567C617.065 553.567 612.89 552.022 612.963 551.748Z" fill="#D200B5"/>
<path opacity="0.1" d="M629.298 575.495C638.571 575.495 646.089 574.225 646.089 572.659C646.089 571.092 638.571 569.822 629.298 569.822C620.025 569.822 612.508 571.092 612.508 572.659C612.508 574.225 620.025 575.495 629.298 575.495Z" fill="#D200B5"/>
<path d="M589.326 376.513C588.871 373.971 588.608 371.399 588.539 368.818C588.539 365.722 584.329 362.979 584.329 362.979C584.329 362.979 581.729 356.966 579.996 356.078C578.262 355.19 572.911 347.323 572.911 347.323C572.85 345.771 572.284 344.281 571.301 343.078C569.698 340.972 568.233 338.763 566.917 336.467C566.195 335.586 566.556 334.965 565.473 329.833C565.415 329.566 565.35 329.306 565.271 329.061C565.271 328.945 565.198 328.844 565.155 328.729C566.305 327.576 567.106 326.123 567.468 324.536C567.829 322.95 567.736 321.293 567.199 319.757C567.004 319.146 566.65 318.598 566.173 318.169C564.953 317.173 563.003 317.584 561.746 316.638L563.082 310.734C563.4 309.29 563.566 307.464 562.303 306.685C561.828 306.46 561.329 306.292 560.815 306.187C558.648 305.465 557.392 303.177 556.829 300.975C556.287 298.854 556.14 296.652 556.395 294.479C556.641 292.385 557.255 290.35 557.478 288.249C557.886 284.364 556.95 280.457 554.828 277.177C554.003 275.761 552.787 274.614 551.326 273.871C549.99 273.272 548.437 273.149 547.188 272.427C544.501 270.717 544.638 266.653 542.493 264.321C540.349 261.99 536.55 261.997 533.423 262.798C530.296 263.599 527.183 264.964 523.977 264.624C521.912 264.393 519.976 263.455 517.904 263.239C517.311 263.182 516.713 263.209 516.127 263.318V263.253C514.596 263.527 513.188 264.379 512.827 265.83C512.746 266.175 512.712 266.529 512.726 266.884C512.726 267.728 512.928 268.609 512.942 269.417C512.969 269.738 512.931 270.062 512.83 270.368C512.73 270.674 512.569 270.957 512.357 271.2C511.946 271.64 511.339 271.871 510.913 272.326C510.739 272.5 510.603 272.708 510.512 272.936C510.422 273.164 510.379 273.409 510.386 273.654C510.386 274.939 511.989 276.072 513.065 276.592H513.108C512.819 276.881 512.531 277.184 512.263 277.494C509.179 280.976 507.478 285.468 507.483 290.119C507.509 293.875 508.633 297.542 510.717 300.669C512.8 303.795 515.753 306.245 519.211 307.717L519.059 308.186C518.755 309.114 518.401 310.025 517.997 310.914C517.25 310.663 516.457 310.578 515.674 310.666C514.891 310.753 514.136 311.01 513.462 311.42C511.397 312.863 507.36 312.748 506.284 312.481C505.208 312.214 494.007 310.799 493.104 311.153C492.202 311.506 490.418 309.918 489.255 312.04C488.092 314.163 487.551 315.31 486.366 315.844C485.182 316.379 483.138 318.053 483.413 318.407C483.687 318.761 480.452 320.883 480.452 320.883C480.452 320.883 477.672 323.77 476.061 324.152C474.451 324.535 471.042 326.722 471.042 326.722L467.092 329.812C467.092 329.812 464.138 330.259 465.034 328.224C465.929 326.188 463.416 323.626 463.416 323.626C463.416 323.626 458.397 313.455 458.397 311.355C458.397 309.254 454.273 300.297 454.273 300.297L453.768 300.246L453.537 299.589C452.778 297.46 451.796 294.847 451.045 293.317C449.601 290.393 448.713 290.09 448.713 290.09C448.713 290.09 431.323 277.04 420.028 281.017C408.733 284.994 440.646 296.846 443.513 298.088C444.517 298.521 445.239 299.921 445.744 301.56C443.2 302.786 441.059 304.711 439.57 307.11C439.57 307.11 446.474 322.406 446.654 326.21C446.835 330.014 451.406 340.646 451.406 340.646C451.406 340.646 453.111 348.521 462.34 348.073C462.34 348.073 475.072 350.412 477.852 348.073C480.632 345.735 483.138 343.901 484.489 343.634C485.482 343.308 486.355 342.692 486.995 341.866C486.995 341.866 482.784 368.392 480.719 370.695C478.654 372.998 460.404 402.78 466.955 408.107C472.142 412.122 477.624 415.741 483.355 418.934C483.911 419.208 485.579 416.429 487.962 414.459C487.962 414.957 487.962 415.462 487.962 415.996C488.006 426.592 489.407 442.703 491.342 446.312C494.231 451.618 493.047 461.875 493.047 461.875C494.565 462.589 496.214 462.985 497.892 463.037C497.979 463.383 498.08 463.759 498.174 464.119C499.755 470.089 502.319 479.321 503.626 481.775C505.598 485.492 507.028 497.258 507.028 497.258C507.028 497.258 508.198 508.807 507.75 510.431C507.577 511.045 508.335 515.852 509.526 521.98C508.804 530.274 507.432 546.262 507.201 552.044C507.201 552.152 507.201 552.26 507.201 552.361V552.462C507.205 552.527 507.205 552.592 507.201 552.657C507.201 552.787 507.201 552.903 507.201 553.011C507.179 553.375 507.193 553.74 507.244 554.101C507.334 554.651 507.292 555.215 507.122 555.747C506.611 557.345 505.961 558.896 505.179 560.381C504.85 561.11 504.56 561.857 504.312 562.618C503.59 562.936 502.709 563.708 502.218 565.592C501.323 569.042 499.979 578.585 499.979 578.585C499.979 578.585 499.438 584.424 498.369 585.752C497.3 587.081 496.202 595.389 503.836 596.45C511.469 597.511 514.769 592.408 514.769 592.408L514.502 569.252V569.208C514.656 569.014 514.79 568.803 514.899 568.581V568.523C514.95 568.414 515.008 568.299 515.058 568.169L515.123 567.996L515.239 567.714C515.235 567.681 515.235 567.647 515.239 567.613C515.979 565.395 516.202 563.037 515.889 560.72V560.604V560.424C515.889 560.366 515.889 560.301 515.889 560.244V559.883C515.889 559.839 515.889 559.789 515.889 559.746C515.889 559.592 515.903 559.433 515.932 559.269C515.932 559.269 515.932 559.211 515.932 559.182L515.975 558.901V558.778C515.975 558.684 515.975 558.591 516.033 558.49C516.03 558.466 516.03 558.441 516.033 558.417C516.105 558.085 516.192 557.696 516.286 557.378V557.299L516.394 556.952C516.503 556.584 516.625 556.23 516.755 555.84V555.768C516.755 555.653 516.835 555.537 516.878 555.429V555.386C517.008 555.032 517.145 554.664 517.275 554.361L517.311 554.267L517.427 553.978L517.463 553.892L517.737 553.249L519.853 559.782C519.853 559.782 521.023 564.647 520.395 565.794C519.767 566.942 521.117 571.72 522.005 571.807L521.175 577.82C520.726 581.135 520.458 584.472 520.373 587.817C520.316 588.199 520.258 588.539 520.215 588.77C519.637 591.852 521.023 596.63 521.023 596.63C528.101 604.996 536.536 597.28 536.536 597.28C536.536 597.28 537.518 592.855 536.536 591.974C535.553 591.094 535.994 587.904 535.994 587.904C535.994 587.904 536.442 580.028 536.528 574.283C536.615 568.537 531.827 563.456 531.827 563.456L531.56 563.694C530.686 561.442 529.689 558.814 529.899 557.638C530.26 555.602 528.909 534.114 528.909 534.114C529.408 528.353 529.515 522.565 529.227 516.79C529.343 515.816 529.451 514.856 529.559 513.903C530.101 509.283 530.542 505.335 530.715 503.264V503.018C530.758 502.462 530.78 502.065 530.773 501.878C530.773 501.156 530.773 500.333 530.845 499.431C531.011 496.948 531.401 494.183 531.401 494.183L533.279 482.771C533.279 482.771 534.723 477.199 536.781 474.109L537.027 473.72C537.106 473.583 537.185 473.431 537.272 473.272L537.308 473.207C537.388 473.056 537.474 472.897 537.554 472.731L537.59 472.666C537.879 472.096 538.189 471.439 538.514 470.717C538.514 470.659 538.565 470.609 538.587 470.551L538.832 470.002C538.832 469.93 538.89 469.858 538.926 469.786C538.962 469.714 539.078 469.418 539.157 469.237C539.193 469.164 539.224 469.09 539.251 469.013C539.345 468.797 539.446 468.573 539.54 468.342L539.677 468.01C539.742 467.844 539.814 467.678 539.886 467.512L540.06 467.072C540.11 466.963 540.154 466.855 540.197 466.747L540.392 466.249C540.392 466.177 540.457 466.097 540.486 466.025C540.999 464.747 541.49 463.484 541.93 462.337C542.067 461.976 542.205 461.615 542.327 461.297C546.92 461.579 550.04 461.831 550.04 461.831C550.04 461.831 551.484 451.488 551.022 444.681C550.719 440.033 551.586 434.186 552.156 430.967C552.221 430.613 552.279 430.295 552.337 430.007L552.459 430.108C554.705 431.876 556.316 426.037 556.316 426.037C556.316 426.037 555.709 420.587 554.871 413.982L554.785 413.325C556.079 413.601 557.388 413.801 558.706 413.925C558.706 413.925 559.428 413.86 560.418 413.737C563.155 415.32 566.043 416.626 569.04 417.635L573.814 408.829C574.711 407.003 575.762 405.257 576.955 403.61C578.4 401.841 583.498 396.182 583.412 395.121C583.325 394.06 585.116 387.954 586.907 385.211C588.698 382.468 589.413 376.953 589.326 376.513ZM569.423 383.233C567.538 384.027 565.747 388.452 565.661 389.78C565.574 391.108 563.595 396.94 561.537 397.648C559.638 398.297 556.012 401.632 555.435 402.166C554.843 402.217 554.171 402.296 553.47 402.412C552.683 396.832 551.903 392.212 551.405 391.281C549.961 388.625 552.987 380.136 552.987 380.136C552.987 380.136 553.283 371.561 555.153 369.526C557.023 367.49 556.597 362.358 556.597 362.358C556.597 362.358 557.045 360.236 557.226 359.269C557.406 358.302 559.89 359.269 559.912 359.269C559.912 359.269 564.751 361.918 565.473 365.895C566.195 369.872 571.481 376.773 571.481 376.773C571.481 376.773 570.672 379.162 571.481 380.382C572.29 381.602 571.308 382.439 569.423 383.233Z" fill="url(#paint0_linear)"/>
<path d="M439.772 307.652C441.244 305.225 443.4 303.285 445.968 302.076C448.537 300.867 451.406 300.441 454.215 300.852V311.181H447.94L443.029 309.94L439.772 307.652Z" fill="#4C4981"/>
<path opacity="0.1" d="M439.772 307.652C441.244 305.225 443.4 303.285 445.968 302.076C448.537 300.867 451.406 300.441 454.215 300.852V311.181H447.94L443.029 309.94L439.772 307.652Z" fill="black"/>
<path d="M454.685 303.588L446.994 308.973C446.994 308.973 446.929 307.897 446.734 306.425C446.351 303.639 445.492 299.459 443.636 298.651C440.812 297.409 409.376 285.586 420.526 281.609C431.677 277.632 448.785 290.668 448.785 290.668C448.785 290.668 449.666 290.971 451.074 293.88C451.796 295.41 452.786 298.016 453.529 300.145C454.215 302.065 454.685 303.588 454.685 303.588Z" fill="#AE6E79"/>
<path d="M516.127 311.882L517.001 311.47L519.456 314.271L517.449 318.551L514.026 317.18L514.82 313.758L516.127 311.882Z" fill="#4C4981"/>
<path d="M504.493 562.575C504.493 562.575 502.283 562.315 501.402 565.758C500.521 569.201 499.192 578.751 499.192 578.751C499.192 578.751 498.665 584.576 497.603 585.904C496.542 587.232 495.487 595.526 502.991 596.58C510.494 597.634 513.766 592.545 513.766 592.545L513.498 569.396L504.493 562.575Z" fill="#444053"/>
<path d="M530.679 563.615C530.679 563.615 535.402 568.667 535.315 574.398C535.228 580.13 534.781 587.99 534.781 587.99C534.781 587.99 534.347 591.173 535.315 592.054C536.283 592.935 535.315 597.352 535.315 597.352C535.315 597.352 527.01 605.054 520.034 596.702C520.034 596.702 518.676 591.931 519.24 588.856C519.803 585.781 521.377 571.959 521.377 571.959L530.679 563.615Z" fill="#444053"/>
<path d="M542.378 458.064C542.378 458.064 537.612 471.388 535.575 474.478C533.539 477.567 532.138 483.139 532.138 483.139L530.282 494.522C529.919 497.067 529.712 499.632 529.66 502.202C529.747 504.765 525.067 542.097 525.067 542.097L517.651 551.546C517.651 551.546 514.387 558.165 514.914 560.929C515.441 563.694 514.56 568.082 513.469 569.403C513.469 569.403 513.296 578.065 513.029 579.992C512.762 581.92 514.004 587.413 513.029 588.38C512.054 589.347 499.077 588.914 498.723 587.319C498.369 585.724 500.312 578.051 500.312 578.051L501.46 570.638C501.46 570.638 503.756 566.581 503.229 565.253C502.702 563.925 504.197 560.843 504.283 560.576C504.37 560.308 506.761 555.985 506.32 554.31C505.879 552.636 509.1 517.021 509.1 517.021L518.192 453.206L542.378 458.064Z" fill="#AE6E79"/>
<path opacity="0.1" d="M542.378 458.064C542.378 458.064 541.656 460.07 540.666 462.705C539.092 466.862 536.824 472.586 535.575 474.478C533.546 477.567 532.13 483.139 532.13 483.139L530.274 494.53C529.916 497.075 529.711 499.64 529.66 502.21C529.66 503.22 528.982 509.666 528.115 517.093C526.779 528.448 525.067 542.104 525.067 542.104L517.651 551.553C517.651 551.553 517.275 552.275 516.806 553.415C515.874 555.581 514.56 559.096 514.914 560.908C515.441 563.643 514.56 568.054 513.469 569.382C513.469 569.382 513.289 578.043 513.029 579.971C512.769 581.898 514.004 587.384 513.029 588.358C512.054 589.333 499.077 588.892 498.723 587.304C498.369 585.716 500.312 578.036 500.312 578.036L501.46 570.616C501.46 570.616 503.756 566.559 503.222 565.231C502.687 563.903 504.197 560.821 504.283 560.554C504.37 560.287 506.761 555.963 506.32 554.289C505.981 553.011 507.764 532.1 508.595 522.182C508.876 519.064 509.057 517.036 509.057 517.036L516.878 462.135L517.514 457.71L518.149 453.22L542.378 458.064Z" fill="black"/>
<path d="M534.434 590.812C534.514 591.787 521.977 593.202 520.186 592.141C518.395 591.079 520.186 577.928 520.186 577.928L521.002 571.93C520.128 571.836 518.799 567.072 519.413 565.924C520.027 564.777 518.886 559.926 518.886 559.926L516.806 553.43L515.535 549.452C513.47 544.898 510.48 531.905 508.624 522.204C507.454 516.112 506.71 511.312 506.876 510.698C507.317 509.11 506.154 497.547 506.154 497.547C506.154 497.547 504.71 485.803 502.803 482.1C501.51 479.646 498.99 470.428 497.43 464.48C496.636 461.427 496.087 459.233 496.087 459.233C496.087 459.233 509.433 458.114 517.528 457.724C521.247 457.544 523.862 457.522 523.558 457.825C523.255 458.128 523.175 459.745 523.19 462.084C523.226 468.14 524.071 478.794 524.966 481.66C526.201 485.63 527.436 497.54 526.909 498.694C526.382 499.849 526.555 507.522 526.555 507.522C527.465 510.639 527.989 513.856 528.115 517.101C528.398 522.849 528.296 528.61 527.812 534.345C527.812 534.345 529.133 555.797 528.78 557.825C528.426 559.854 531.603 566.213 531.603 567.447C531.603 568.682 532.484 577.069 532.484 577.069C532.484 577.069 534.376 589.845 534.434 590.812Z" fill="#AE6E79"/>
<path d="M541.403 332.98L539.886 334.619L538.897 335.687L533.12 341.895L518.192 343.577L510.249 341.454L508.284 340.927C508.284 340.927 508.284 336.943 508.638 332.165C509.144 326.036 510.35 318.595 513.231 316.566C514.674 315.437 515.826 313.98 516.589 312.315C517.166 311.167 517.649 309.974 518.034 308.749C518.091 308.59 518.135 308.439 518.185 308.28C518.835 306.141 519.304 303.951 519.586 301.733C519.586 301.733 521.493 300.679 524.143 299.452C531.054 296.226 542.992 291.772 538.839 301.733C538.229 303.192 537.708 304.686 537.279 306.208C537.214 306.432 537.157 306.656 537.106 306.872C535.719 312.416 536.637 315.779 537.669 317.635C537.844 317.956 538.044 318.262 538.269 318.551C538.551 318.939 538.889 319.282 539.273 319.569L540.991 330.476L541.136 331.378L541.403 332.98Z" fill="#AE6E79"/>
<path opacity="0.1" d="M538.847 302.267C538.059 304.158 539.229 300.722 538.847 302.267C535.698 304.505 528.281 310.878 524.114 310.878C521.298 310.878 520.453 310.366 518.041 309.276C518.771 306.992 519.291 304.646 519.594 302.267C519.594 302.267 544.588 288.495 538.847 302.267Z" fill="black"/>
<path d="M545.209 290.667C545.205 295.421 543.442 300.005 540.26 303.538C537.077 307.071 532.7 309.302 527.971 309.803C527.306 309.868 526.635 309.911 525.956 309.911C522.148 309.911 518.426 308.782 515.259 306.668C512.093 304.553 509.626 301.548 508.168 298.032C506.711 294.515 506.33 290.646 507.073 286.913C507.816 283.18 509.649 279.752 512.342 277.06C515.034 274.369 518.465 272.536 522.2 271.794C525.934 271.051 529.806 271.432 533.324 272.889C536.842 274.345 539.849 276.812 541.964 279.976C544.08 283.141 545.209 286.861 545.209 290.667Z" fill="#AE6E79"/>
<path opacity="0.1" d="M547.946 375.972L545.202 383.125C545.202 383.125 542.97 383.219 539.489 383.327C527.74 383.702 501.85 384.179 500.694 381.161C500.435 380.396 500.299 379.595 500.29 378.787C500.138 374.189 502.283 367.129 502.283 367.129C502.283 367.129 503.518 353.003 503.518 352.39C503.518 351.776 502.456 341.88 502.456 341.88L504.58 333.94L510.494 329.79C510.494 329.79 513.145 333.854 514.733 334.2C516.322 334.547 518.445 336.503 518.445 336.503C518.445 336.503 523.652 339.679 525.335 337.91C527.017 336.142 540.081 328.375 540.081 328.375L546.971 335.969L547.946 375.972Z" fill="black"/>
<path d="M547.946 377.069L545.202 384.215C545.202 384.215 542.97 384.316 539.489 384.424H539.15C537.648 384.475 535.929 384.525 534.095 384.561C524.757 384.778 511.895 384.835 505.172 383.839C502.644 383.478 500.99 382.959 500.716 382.251C500.564 381.826 500.457 381.386 500.398 380.938C500.355 380.606 500.326 380.216 500.312 379.877C500.16 375.279 502.305 368.219 502.305 368.219C502.305 368.219 503.54 354.093 503.54 353.48C503.54 352.866 502.478 342.97 502.478 342.97L504.601 335.03L508.667 332.186L510.516 330.887C511.138 331.817 511.815 332.709 512.545 333.558C513.115 334.323 513.878 334.923 514.755 335.297C516.351 335.651 518.467 337.6 518.467 337.6C518.467 337.6 523.674 340.776 525.356 339.007C526.635 337.658 534.579 332.8 538.247 330.584C539.374 329.898 540.103 329.472 540.103 329.472L541.028 330.497L546.993 337.066L547.946 377.069Z" fill="white"/>
<path opacity="0.1" d="M454.685 303.588L446.994 308.973C446.994 308.973 446.929 307.897 446.734 306.425C450.532 304.822 452.843 301.278 453.508 300.145C454.215 302.065 454.685 303.588 454.685 303.588Z" fill="black"/>
<path d="M481.708 321.864L480.033 321.417C480.033 321.417 477.289 324.304 475.7 324.687C474.111 325.069 470.76 327.242 470.76 327.242L466.868 330.331C466.868 330.331 463.979 330.779 464.839 328.743C465.698 326.708 463.25 324.152 463.25 324.152C463.25 324.152 458.303 314.004 458.303 311.882C458.303 309.759 454.215 300.852 454.215 300.852C454.215 300.852 449.088 310.828 439.729 307.652C439.729 307.652 446.532 322.918 446.705 326.715C446.878 330.512 451.385 341.101 451.385 341.101C451.385 341.101 453.067 348.961 462.159 348.521C462.159 348.521 474.703 350.852 477.44 348.521C480.177 346.189 482.647 344.356 483.94 344.089C485.233 343.822 486.41 342.328 486.41 342.328V331.833L481.708 321.864Z" fill="#4C4981"/>
<path opacity="0.1" d="M465.987 331.833C465.987 331.833 468.197 340.047 466.781 340.927L465.987 331.833Z" fill="black"/>
<path opacity="0.1" d="M539.489 384.388C527.74 384.763 501.85 385.232 500.694 382.222C500.435 381.457 500.299 380.656 500.29 379.848L538.673 381.869L539.489 384.388Z" fill="black"/>
<path opacity="0.1" d="M542.378 458.064C542.378 458.064 541.656 460.07 540.666 462.705C535.792 462.409 529.336 462.098 523.204 462.055C521.038 462.055 518.915 462.055 516.907 462.127C512.646 462.257 508.963 462.604 506.616 463.268C503.649 464.181 500.547 464.581 497.445 464.452C496.65 461.398 496.101 459.204 496.101 459.204C496.101 459.204 509.447 458.085 517.543 457.695L518.178 453.206L542.378 458.064Z" fill="black"/>
<path d="M552.712 425.755L551.21 428.931C551.21 428.931 551.001 429.877 550.733 431.378C550.17 434.612 549.289 440.444 549.621 445.093C550.062 451.892 548.646 462.214 548.646 462.214C548.646 462.214 516.149 459.478 506.616 462.214C497.083 464.95 492.389 462.214 492.389 462.214C492.389 462.214 493.545 451.979 490.714 446.681C488.786 443.071 487.428 426.961 487.385 416.364C487.385 411.478 487.63 407.775 488.244 407.024C490.187 404.642 498.484 380.808 498.484 380.808L500.377 380.909L505.432 381.176L534.174 382.692L538.688 382.93L539.164 384.374L552.712 425.755Z" fill="#444053"/>
<path d="M567.018 415.159L567.286 417.988C567.286 417.988 553.052 413.354 553.774 407.659C554.496 401.964 553.774 402.606 553.774 402.606L565.213 403.574L567.018 415.159Z" fill="#4C4981"/>
<path opacity="0.1" d="M567.018 415.159L567.286 417.988C567.286 417.988 553.052 413.354 553.774 407.659C554.496 401.964 553.774 402.606 553.774 402.606L565.213 403.574L567.018 415.159Z" fill="black"/>
<path opacity="0.1" d="M475.483 334.114C476.937 335.348 478.65 336.238 480.495 336.719C479.961 336.603 479.464 336.355 479.051 335.997C478.033 335.276 477.065 334.489 476.083 333.724C475.288 333.103 474.299 332.071 473.324 331.818C473.962 332.656 474.686 333.425 475.483 334.114Z" fill="black"/>
<path opacity="0.1" d="M475.7 337.831C476.158 338.348 476.528 338.935 476.798 339.57C477.253 341.367 477.226 343.252 476.718 345.035L474.436 339.534C474.039 338.596 473.642 337.658 473.165 336.763C472.956 336.38 471.641 334.785 471.793 334.453C472.198 333.514 475.274 337.304 475.7 337.831Z" fill="black"/>
<path opacity="0.1" d="M539.374 368.291C540.93 368.103 542.384 367.423 543.526 366.35C541.179 366.646 538.955 367.57 536.644 368.053C534.498 368.551 532.249 368.344 530.231 367.461C532.889 368.761 536.543 368.804 539.374 368.291Z" fill="black"/>
<path opacity="0.1" d="M532.737 352.13C532.316 352.193 531.888 352.086 531.545 351.834C529.783 350.824 528.045 349.77 526.331 348.673C524.663 347.597 522.648 346.507 521.226 345.15C524.728 348.312 527.992 350.982 532.737 352.13Z" fill="black"/>
<path opacity="0.1" d="M537.633 370.854C538.559 370.896 539.486 370.821 540.392 370.63C541.309 370.439 542.119 369.908 542.66 369.143C542.332 369.068 541.988 369.122 541.699 369.295C538.901 370.472 535.828 370.839 532.831 370.356C534.268 370.969 536.109 370.847 537.633 370.854Z" fill="black"/>
<path opacity="0.1" d="M520.908 411.838C519.069 412.393 517.18 412.763 515.268 412.943C513.78 413.012 512.289 412.983 510.805 412.856L503.583 412.402L499.972 412.171C499.546 412.171 497.806 412.171 498.665 411.312C499.098 410.893 501.51 411.16 502.131 411.138C503.33 411.1 504.534 411.078 505.742 411.073C508.133 411.073 510.53 411.073 512.921 411.218C515.6 411.348 518.236 411.55 520.908 411.838Z" fill="black"/>
<path opacity="0.1" d="M512.538 415.412C511.31 415.361 509.729 416.09 508.465 416.249C507.051 416.416 505.626 416.471 504.204 416.415C501.389 416.347 498.609 415.78 495.993 414.74C501.503 415.022 507.028 415.188 512.538 415.412Z" fill="black"/>
<path opacity="0.1" d="M497.069 419.194C497.603 419.302 498.129 419.446 498.643 419.627C501.691 420.493 504.933 419.728 508.032 418.963C507.259 420.125 505.865 420.623 504.471 420.941C502.204 421.515 499.841 421.601 497.538 421.193C496.816 421.049 495.004 420.789 494.65 420.038C494.058 418.934 496.39 419.085 497.069 419.194Z" fill="black"/>
<path opacity="0.1" d="M514.156 424.889C515.069 425.076 515.971 425.317 516.856 425.611C520.287 426.463 523.847 425.293 527.292 424.506C531.433 423.566 535.679 423.173 539.923 423.337C539.164 423.337 537.958 424.001 537.214 424.225C536.239 424.521 535.25 424.795 534.261 425.041C532.318 425.517 530.347 425.907 528.361 426.188C524.351 426.768 520.294 426.944 516.25 426.715C514.401 426.614 511.195 426.802 509.613 425.871C510.98 425.059 512.575 424.714 514.156 424.889Z" fill="black"/>
<path opacity="0.1" d="M515.448 316.025C515.448 316.025 515.622 324.152 514.3 327.863C513.881 329.018 513.231 331.147 512.524 333.536C511.751 336.185 510.906 339.152 510.256 341.476C509.606 343.8 509.173 345.359 509.173 345.359C509.173 345.359 506.19 369.641 505.417 381.212C505.417 381.414 505.417 381.623 505.374 381.818C505.331 382.468 505.259 383.146 505.15 383.847C503.431 395.338 493.516 413.058 490.187 414.473C489.149 414.949 488.201 415.601 487.385 416.4C487.385 411.514 487.63 407.811 488.244 407.06C490.187 404.678 498.485 380.844 498.485 380.844L500.377 380.945C500.333 380.613 500.304 380.223 500.29 379.884C500.138 375.286 502.283 368.226 502.283 368.226C502.283 368.226 503.518 354.101 503.518 353.487C503.518 352.874 502.456 342.977 502.456 342.977L504.58 335.037L508.645 332.193C509.151 326.065 510.357 318.623 513.238 316.595C514.681 315.466 515.833 314.008 516.597 312.344C517.167 312.423 516.127 311.918 516.127 311.918L515.448 316.025Z" fill="black"/>
<path d="M517.001 311.47C516.265 311.219 515.482 311.133 514.709 311.221C513.936 311.308 513.192 311.566 512.531 311.975C510.494 313.419 506.522 313.296 505.461 313.037C504.399 312.777 493.364 311.355 492.462 311.708C491.559 312.062 489.811 310.474 488.663 312.596C487.515 314.718 486.988 315.859 485.839 316.386C484.691 316.913 482.655 318.595 482.951 318.948C483.247 319.302 480.062 321.417 480.062 321.417L486.504 342.349C486.504 342.349 482.351 368.826 480.322 371.121C478.293 373.416 460.275 403.162 466.723 408.46C471.829 412.473 477.232 416.093 482.886 419.288C483.608 419.641 486.15 414.877 489.681 413.376C493.213 411.875 504.168 392.01 504.847 380.714C505.526 369.417 508.645 344.262 508.645 344.262C508.645 344.262 512.444 330.49 513.766 326.78C515.087 323.07 514.914 314.942 514.914 314.942L517.001 311.47Z" fill="#4C4981"/>
<path opacity="0.1" d="M552.712 425.755L551.21 428.931C551.21 428.931 551.001 429.877 550.733 431.378C550.466 431.344 550.214 431.231 550.011 431.053C547.801 429.285 534.846 415.96 534.203 404.13C533.748 395.403 533.965 387.881 534.109 384.532C534.152 383.478 534.196 382.843 534.196 382.706C534.196 382.706 544.263 370.522 543.114 366.205C541.966 361.889 539.316 338.776 539.316 338.776L538.926 335.745L538.254 330.62L536.651 318.219L538.312 318.609C538.594 318.996 538.933 319.339 539.316 319.627L541.035 330.533L547 337.102L547.975 377.09L545.23 384.236C545.23 384.236 542.999 384.337 539.518 384.446H539.179L552.712 425.755Z" fill="black"/>
<path d="M558.273 359.745C558.273 359.745 555.803 358.771 555.63 359.745C555.456 360.72 555.009 362.827 555.009 362.827C555.009 362.827 555.449 367.952 553.564 369.98C551.679 372.009 551.398 380.57 551.398 380.57C551.398 380.57 548.422 389.044 549.831 391.693C550.343 392.653 551.138 397.467 551.932 403.242C552.438 406.851 552.936 410.814 553.377 414.437C554.178 421.02 554.778 426.47 554.778 426.47C554.778 426.47 553.182 432.295 550.972 430.526C548.762 428.758 535.806 415.433 535.171 403.603C534.737 395.295 534.911 388.076 535.055 384.518C535.113 383.009 535.171 382.158 535.171 382.158C535.171 382.158 545.238 369.973 544.089 365.65C542.941 361.326 540.291 338.221 540.291 338.221L539.829 334.648L539.33 330.808L539.215 329.963L537.619 317.692C537.9 317.757 547.809 319.995 549.116 321.301C550.423 322.608 558.504 324.477 558.504 324.477C559.723 324.808 560.831 325.459 561.712 326.363C562.593 327.267 563.216 328.39 563.516 329.617C563.595 329.862 563.653 330.122 563.711 330.389C564.772 335.514 564.433 336.127 565.155 337.015C565.877 337.903 558.273 359.745 558.273 359.745Z" fill="#4C4981"/>
<path opacity="0.1" d="M553.434 414.43C549.824 413.708 544.465 412.041 544.588 408.359C544.696 404.916 548.841 403.675 551.983 403.234C552.488 406.829 552.987 410.806 553.434 414.43Z" fill="black"/>
<path d="M564.635 412.596C564.491 412.907 563.913 413.174 563.09 413.412C561.158 413.872 559.196 414.192 557.218 414.372C557.218 414.372 544.942 413.398 545.115 407.832C545.245 403.841 550.791 402.78 553.904 402.542C554.593 402.477 555.284 402.448 555.976 402.455C555.976 402.455 565.162 411.456 564.635 412.596Z" fill="#AE6E79"/>
<path opacity="0.1" d="M564.635 412.596C564.491 412.907 563.913 413.174 563.09 413.412C559.89 409.132 555.427 403.639 553.239 403.155L553.904 402.542C554.593 402.477 555.284 402.448 555.976 402.455C555.976 402.455 565.162 411.456 564.635 412.596Z" fill="black"/>
<path d="M561.544 336.423L565.155 336.957C566.459 339.253 567.906 341.464 569.488 343.577C570.458 344.782 571.015 346.268 571.077 347.814C571.077 347.814 576.378 355.667 578.053 356.548C579.728 357.428 582.292 363.434 582.292 363.434C582.292 363.434 586.445 366.169 586.445 369.259C586.518 371.835 586.784 374.402 587.239 376.939C587.333 377.379 586.625 382.858 584.856 385.601C583.087 388.343 581.317 394.392 581.411 395.475C581.505 396.558 576.464 402.188 575.056 403.949C573.881 405.596 572.847 407.339 571.965 409.161L567.285 417.988C567.285 417.988 557.392 403.422 553.774 402.628C553.774 402.628 557.832 398.745 559.862 398.037C561.891 397.33 563.841 391.541 563.927 390.184C564.014 388.827 565.783 384.446 567.632 383.688C569.481 382.93 570.463 382.1 569.669 380.858C568.874 379.617 569.669 377.249 569.669 377.249C569.669 377.249 564.455 370.363 563.747 366.422C563.039 362.481 558.273 359.803 558.273 359.803L555.536 353.09L561.544 336.423Z" fill="#4C4981"/>
<path opacity="0.1" d="M574.681 369.374C576.679 367.688 579.194 366.735 581.808 366.675C580.133 366.963 578.371 367.331 577.143 368.501C576.661 369.007 576.228 369.558 575.85 370.147C575.432 370.746 572.023 375.077 571.518 374.391C570.673 373.387 573.995 369.959 574.681 369.374Z" fill="black"/>
<path opacity="0.1" d="M566.679 365.195C567.22 365.148 567.738 364.958 568.181 364.645C568.624 364.332 568.976 363.906 569.199 363.412C569.63 362.417 569.896 361.359 569.986 360.279C570.245 358.472 570.609 356.681 571.077 354.916C571.217 354.567 571.277 354.191 571.25 353.816C571.224 353.441 571.113 353.077 570.925 352.751C570.732 352.187 570.47 351.649 570.145 351.148C569.495 351.87 569.308 353.552 569.04 354.519C568.708 355.717 568.405 356.923 568.116 358.128C567.964 358.706 566.766 365.195 566.679 365.195Z" fill="black"/>
<path opacity="0.1" d="M563.552 329.559C563.196 330.024 562.786 330.446 562.331 330.815C560.887 331.963 558.973 332.93 558.793 334.741C558.843 335.33 558.769 335.923 558.576 336.481C558.114 337.275 556.98 337.203 556.077 337.051C555.316 336.983 554.586 336.714 553.961 336.272C553.015 335.463 552.929 334.02 552.207 333.002C551.768 332.477 551.214 332.059 550.588 331.783C549.961 331.506 549.28 331.377 548.596 331.407C547.245 331.363 545.902 331.667 544.552 331.724C543.684 331.768 542.814 331.71 541.959 331.551C541.677 331.508 541.397 331.45 541.121 331.378C540.518 331.229 539.928 331.029 539.359 330.779C539.065 330.662 538.778 330.527 538.5 330.375C537.596 329.911 536.758 329.328 536.008 328.642C534.687 327.43 533.589 325.755 533.697 323.958C533.762 322.853 534.261 321.835 534.42 320.746C534.961 317.627 532.889 314.682 530.643 312.452C529.747 311.564 528.794 310.705 527.898 309.803C526.504 308.517 525.403 306.947 524.67 305.198C524.068 303.336 523.871 301.367 524.093 299.423C524.296 297.452 524.351 295.469 524.259 293.49C523.594 286.474 517.6 281.096 511.606 278.173L511.339 278.036C513.117 275.996 515.306 274.354 517.762 273.217C520.218 272.081 522.887 271.474 525.593 271.438C528.3 271.402 530.984 271.938 533.469 273.009C535.955 274.08 538.186 275.663 540.018 277.655C541.85 279.647 543.241 282.002 544.1 284.568C544.959 287.133 545.267 289.851 545.004 292.544C544.741 295.236 543.912 297.843 542.572 300.194C541.233 302.545 539.412 304.587 537.229 306.187C537.164 306.41 537.106 306.634 537.056 306.851C535.669 312.394 536.586 315.758 537.619 317.613C537.9 317.678 547.809 319.915 549.116 321.222C550.423 322.528 558.504 324.398 558.504 324.398C559.732 324.725 560.849 325.377 561.738 326.285C562.626 327.193 563.253 328.324 563.552 329.559Z" fill="black"/>
<path d="M510.068 272.947C510.465 272.492 511.065 272.261 511.469 271.821C512.718 270.464 511.469 268.248 511.924 266.458C512.415 264.473 514.856 263.607 516.893 263.816C518.929 264.025 520.836 264.964 522.872 265.195C526.035 265.548 529.097 264.177 532.181 263.376C535.265 262.574 538.991 262.531 541.114 264.892C543.237 267.252 543.093 271.272 545.736 272.983C546.956 273.77 548.495 273.856 549.816 274.427C551.263 275.169 552.462 276.315 553.268 277.725C555.36 281.009 556.282 284.904 555.883 288.776C555.659 290.87 555.052 292.905 554.806 294.998C554.557 297.172 554.704 299.373 555.24 301.495C555.796 303.66 557.002 305.999 559.161 306.692C559.66 306.802 560.145 306.969 560.605 307.19C561.855 307.969 561.689 309.803 561.371 311.232L560.086 317.158C561.32 318.096 563.241 317.692 564.419 318.681C564.89 319.112 565.239 319.66 565.43 320.269C566.01 321.926 566.073 323.721 565.61 325.415C565.147 327.109 564.18 328.622 562.837 329.754C561.393 330.901 559.479 331.869 559.298 333.673C559.353 334.262 559.279 334.856 559.082 335.413C558.627 336.207 557.486 336.135 556.583 335.983C555.824 335.913 555.096 335.644 554.474 335.203C553.521 334.395 553.442 332.951 552.719 331.934C552.28 331.409 551.726 330.993 551.1 330.716C550.474 330.439 549.792 330.31 549.109 330.338C547.751 330.295 546.415 330.598 545.057 330.663C541.926 330.792 538.869 329.688 536.543 327.588C535.214 326.368 534.124 324.701 534.225 322.897C534.29 321.799 534.788 320.774 534.947 319.684C535.481 316.573 533.416 313.621 531.17 311.391C528.924 309.16 526.288 307.103 525.19 304.137C523.818 300.463 525.147 296.363 524.779 292.465C524.114 285.442 518.127 280.071 512.126 277.141C510.79 276.455 508.515 274.715 510.068 272.947Z" fill="#444053"/>
<path opacity="0.1" d="M557.298 333.565C556.345 332.749 556.265 331.313 555.543 330.295C555.104 329.77 554.55 329.353 553.924 329.075C553.298 328.797 552.617 328.667 551.932 328.693C550.575 328.649 549.231 328.953 547.881 329.018C544.738 329.155 541.668 328.048 539.338 325.935C538.009 324.723 536.926 323.048 537.027 321.251C537.092 320.146 537.59 319.121 537.749 318.039C538.29 314.92 536.218 311.968 533.972 309.738C531.726 307.507 529.097 305.45 527.992 302.484C526.627 298.817 527.992 294.717 527.588 290.812C526.916 283.789 520.93 278.418 514.936 275.488C513.535 274.802 511.26 273.062 512.812 271.294C513.202 270.839 513.802 270.608 514.206 270.168C515.455 268.818 514.206 266.595 514.668 264.812C514.757 264.457 514.911 264.122 515.123 263.823C513.614 264.105 512.235 264.956 511.866 266.4C511.426 268.19 512.661 270.406 511.411 271.763C511.007 272.204 510.408 272.435 510.01 272.882C508.458 274.65 510.733 276.397 512.134 277.076C518.135 280.006 524.121 285.384 524.786 292.4C525.154 296.305 523.825 300.405 525.198 304.079C526.295 307.038 528.931 309.132 531.177 311.333C533.423 313.535 535.51 316.508 534.954 319.627C534.65 320.682 534.409 321.755 534.232 322.839C534.131 324.636 535.221 326.311 536.55 327.523C538.877 329.637 541.945 330.745 545.086 330.606C546.444 330.541 547.78 330.245 549.137 330.281C549.822 330.255 550.503 330.386 551.129 330.664C551.754 330.942 552.308 331.359 552.748 331.883C553.47 332.901 553.55 334.345 554.503 335.153C555.126 335.591 555.853 335.858 556.612 335.925C557.515 336.091 558.656 336.149 559.111 335.362C559.273 335.041 559.343 334.681 559.313 334.323C558.586 334.252 557.891 333.99 557.298 333.565Z" fill="black"/>
<path d="M452.172 290.668H402.219V241.469H452.208L452.172 290.668ZM451.45 216.487H402.942C402.942 140.032 475.65 144.5 475.65 96.1313C475.65 69.4891 453.833 48.145 427.178 48.145C400.522 48.145 378.713 71.1565 378.713 96.8892H330.241C330.219 84.1594 332.711 71.5504 337.575 59.7854C342.439 48.0204 349.578 37.3308 358.584 28.3294C367.59 19.3281 378.285 12.1921 390.056 7.33071C401.826 2.46932 414.441 -0.0218631 427.178 5.40659e-06C480.719 5.40659e-06 524.114 42.6953 524.114 96.1313C524.114 156.612 451.413 163.498 451.413 216.487H451.45Z" fill="#D200B5"/>
<path opacity="0.1" d="M203.031 276.015H190.147V263.296H203.031V276.015ZM202.836 256.887H190.342C190.342 237.181 209.082 238.329 209.082 225.849C209.076 224.216 208.747 222.6 208.116 221.094C207.484 219.588 206.562 218.221 205.402 217.072C204.242 215.922 202.866 215.012 201.354 214.394C199.842 213.776 198.223 213.462 196.589 213.469C193.29 213.546 190.148 214.896 187.824 217.238C185.5 219.58 184.174 222.731 184.124 226.029H171.631C171.714 219.475 174.37 213.217 179.027 208.603C183.684 203.989 189.968 201.389 196.526 201.363C203.083 201.337 209.387 203.889 214.08 208.466C218.773 213.044 221.478 219.281 221.612 225.834C221.576 241.425 202.836 243.201 202.836 256.858V256.887Z" fill="#D200B5"/>
<path opacity="0.1" d="M300.581 364.372H287.698V351.69H300.581V364.372ZM300.393 345.251H287.9C287.9 325.538 306.64 326.693 306.64 314.213C306.634 312.581 306.305 310.965 305.673 309.46C305.042 307.954 304.119 306.588 302.959 305.439C301.799 304.29 300.423 303.381 298.911 302.763C297.399 302.146 295.78 301.833 294.147 301.841C290.834 301.901 287.674 303.246 285.335 305.593C282.997 307.94 281.663 311.104 281.617 314.415H269.124C269.206 307.862 271.863 301.603 276.52 296.989C281.177 292.375 287.461 289.775 294.018 289.749C300.576 289.724 306.88 292.275 311.573 296.852C316.266 301.43 318.971 307.668 319.105 314.22C319.126 329.812 300.393 331.594 300.393 345.251Z" fill="#D200B5"/>
<path opacity="0.1" d="M359.9 207.955H350.562V198.781H359.9V207.955ZM359.763 194.089H350.707C350.707 179.811 364.291 180.641 364.291 171.604C364.285 170.421 364.047 169.251 363.588 168.16C363.13 167.069 362.462 166.08 361.621 165.247C360.78 164.415 359.783 163.756 358.687 163.308C357.592 162.861 356.419 162.634 355.235 162.639C352.838 162.688 350.554 163.665 348.865 165.364C347.175 167.064 346.212 169.353 346.179 171.749H337.123C337.104 166.947 338.994 162.335 342.377 158.927C345.76 155.518 350.359 153.592 355.163 153.573C359.966 153.554 364.581 155.443 367.991 158.825C371.401 162.206 373.328 166.803 373.347 171.604C373.333 182.901 359.763 184.193 359.763 194.089Z" fill="#D200B5"/>
<path opacity="0.1" d="M519.384 220.904H514.105V215.707H519.384V220.904ZM519.305 213.072H514.156C514.156 205.003 521.832 205.472 521.832 200.361C521.832 199.693 521.7 199.031 521.442 198.414C521.184 197.797 520.807 197.238 520.331 196.768C519.856 196.298 519.292 195.927 518.672 195.676C518.052 195.426 517.388 195.301 516.719 195.309C515.365 195.336 514.075 195.889 513.12 196.849C512.164 197.808 511.619 199.101 511.599 200.455H506.479C506.539 197.788 507.638 195.249 509.543 193.38C511.448 191.511 514.008 190.459 516.677 190.449C519.346 190.439 521.914 191.471 523.834 193.325C525.753 195.179 526.872 197.709 526.952 200.376C526.981 206.72 519.305 207.478 519.305 213.072Z" fill="#D200B5"/>
<path opacity="0.1" d="M600.094 457.277H594.815V452.08H600.094V457.277ZM600.014 449.445H594.894C594.894 441.368 602.578 441.844 602.578 436.734C602.568 435.386 602.024 434.096 601.064 433.149C600.104 432.201 598.807 431.674 597.458 431.681C596.103 431.707 594.811 432.259 593.856 433.219C592.9 434.179 592.356 435.474 592.337 436.828H587.217C587.277 434.16 588.377 431.622 590.281 429.753C592.186 427.884 594.746 426.832 597.415 426.822C600.085 426.811 602.653 427.843 604.572 429.697C606.491 431.552 607.61 434.082 607.691 436.748C607.72 443.122 600.043 443.851 600.043 449.445H600.014Z" fill="#D200B5"/>
</g>
<defs>
<linearGradient id="paint0_linear" x1="503.496" y1="600.586" x2="503.496" y2="262.235" gradientUnits="userSpaceOnUse">
<stop stop-color="#808080" stop-opacity="0.25"/>
<stop offset="0.54" stop-color="#808080" stop-opacity="0.12"/>
<stop offset="1" stop-color="#808080" stop-opacity="0.1"/>
</linearGradient>
<clipPath id="clip0">
<rect width="725" height="604" fill="white"/>
</clipPath>
</defs>
</svg>
