<svg width="36" height="90" viewBox="0 0 36 90" fill="none" xmlns="http://www.w3.org/2000/svg">
<g clip-path="url(#clip0)">
<path d="M33.19 17.845C33.19 9.37019 26.3198 2.5 17.845 2.5C9.37019 2.5 2.5 9.37019 2.5 17.845V71.381C2.5 79.8558 9.37019 86.726 17.845 86.726C26.3198 86.726 33.19 79.8558 33.19 71.381V17.845Z" stroke="#D200B5" stroke-width="5"/>
<path d="M22.952 53.535C22.952 50.7189 20.6693 48.436 17.8535 48.436C15.0377 48.436 12.755 50.7189 12.755 53.535V68.83C12.755 71.6461 15.0377 73.929 17.8535 73.929C20.6693 73.929 22.952 71.6461 22.952 68.83V53.535Z" fill="#D200B5"/>
</g>
<defs>
<clipPath id="clip0">
<rect width="35.69" height="89.226" fill="white"/>
</clipPath>
</defs>
</svg>
